<svg width="1052" height="160" viewBox="0 0 1052 160" fill="none" xmlns="http://www.w3.org/2000/svg">
<path d="M68.8225 62.1175H41.4994V77.017H65.8867V84.1927H41.4994V108.429H33.8575V54.5512H68.8225V62.1175Z" fill="#C5258F"/>
<path d="M115.625 108.429H107.29L101.809 93.6112H80.5089L75.0279 108.429H66.7686L87.4515 54.5575H94.8603L115.625 108.429ZM99.3396 86.8198L91.1559 65.1289L83.0541 86.8198H99.3396Z" fill="#C5258F"/>
<path d="M129.676 108.429H121.958V54.5575H129.676V108.429Z" fill="#C5258F"/>
<path d="M165.767 84.4195C167.002 85.3456 168.161 87.0466 169.012 88.4326L181.436 108.423H172.483L161.37 89.743C159.751 86.9647 158.434 85.1881 154.812 85.1881H149.022V108.423H141.305V54.5512H160.444C170.707 54.5512 178.349 59.1817 178.349 70.0681C178.349 77.5525 173.794 82.8823 165.767 84.4258V84.4195ZM160.444 62.0356H149.022V78.3967H160.444C166.158 78.3967 170.631 76.702 170.631 70.1374C170.631 63.5728 166 62.0356 160.444 62.0356Z" fill="#C5258F"/>
<path d="M226.038 52.5512C236.715 52.5513 243.677 54.4307 247.76 59.5014C251.733 64.4341 252.506 71.8768 252.506 81.4897C252.506 91.1027 251.733 98.5462 247.76 103.479C243.676 108.549 236.715 110.429 226.038 110.429H224.038V110.422H208.754V52.5512H226.038ZM220.471 98.7807H227.581C234.965 98.7807 237.811 97.5008 239.208 95.1342C239.845 94.0274 240.267 92.4501 240.505 90.1537C240.744 87.86 240.783 85.0465 240.783 81.5659C240.783 78.0859 240.743 75.1931 240.496 72.811C240.247 70.422 239.806 68.7602 239.142 67.6254C237.742 65.3832 234.866 64.1108 227.581 64.1108H220.471V98.7807Z" fill="black" stroke="white" stroke-width="4"/>
<path d="M281.979 52.5575L282.473 53.8378L303.238 107.71L304.285 110.429H291.644L291.16 109.123L286.163 95.6112H267.648L262.65 109.123L262.167 110.429H249.605L250.648 107.712L271.33 53.8407L271.823 52.5575H281.979ZM271.682 84.8202H282.194L276.911 70.8192L271.682 84.8202Z" fill="black" stroke="white" stroke-width="4"/>
<path d="M339.542 52.5575V64.1239H323.332V110.429H311.614V64.1239H295.404V52.5575H339.542Z" fill="black" stroke="white" stroke-width="4"/>
<path d="M363.109 52.5575L363.603 53.8378L384.368 107.71L385.415 110.429H372.774L372.29 109.123L367.293 95.6112H348.778L343.78 109.123L343.297 110.429H330.735L331.778 107.712L352.46 53.8407L352.953 52.5575H363.109ZM352.812 84.8202H363.324L358.041 70.8192L352.812 84.8202Z" fill="black" stroke="white" stroke-width="4"/>
<path d="M418.716 108.429H410.998V54.5575H418.716V108.429Z" fill="#C5258F"/>
<path d="M468.697 108.429H462.057L438.054 70.0681V108.429H430.336V54.5575H437.052L460.98 92.9182V54.5575H468.697V108.429Z" fill="#C5258F"/>
<path d="M517.897 108.429H511.257L487.254 70.0681V108.429H479.536V54.5575H486.252L510.18 92.9182V54.5575H517.897V108.429Z" fill="#C5258F"/>
<path d="M548.43 109.056C532.22 109.056 526.43 95.7002 526.43 81.5C526.43 67.2998 532.22 53.9438 548.43 53.9438C564.64 53.9438 570.43 67.2179 570.43 81.5C570.43 95.7821 564.564 109.056 548.43 109.056ZM548.43 61.5101C536.542 61.5101 534.148 72.239 534.148 81.5C534.148 90.761 536.542 101.49 548.43 101.49C560.318 101.49 562.63 90.761 562.63 81.5C562.63 72.239 560.312 61.5101 548.43 61.5101Z" fill="#C5258F"/>
<path d="M616.94 54.5512L598.726 108.423H591.16L572.947 54.5512H581.049L594.94 96.925L608.831 54.5512H616.933H616.94Z" fill="#C5258F"/>
<path d="M661.705 108.429H653.37L647.889 93.6112H626.589L621.108 108.429H612.849L633.532 54.5575H640.94L661.705 108.429ZM645.42 86.8198L637.236 65.1289L629.134 86.8198H645.42Z" fill="#C5258F"/>
<path d="M697.882 62.1238H681.672V108.429H673.954V62.1238H657.745V54.5575H697.882V62.1238Z" fill="#C5258F"/>
<path d="M713.512 108.429H705.794V54.5575H713.512V108.429Z" fill="#C5258F"/>
<path d="M744.83 109.056C728.62 109.056 722.83 95.7002 722.83 81.5C722.83 67.2998 728.62 53.9438 744.83 53.9438C761.04 53.9438 766.83 67.2179 766.83 81.5C766.83 95.7821 760.964 109.056 744.83 109.056ZM744.83 61.5101C732.942 61.5101 730.548 72.239 730.548 81.5C730.548 90.761 732.942 101.49 744.83 101.49C756.718 101.49 759.03 90.761 759.03 81.5C759.03 72.239 756.712 61.5101 744.83 61.5101Z" fill="#C5258F"/>
<path d="M813.687 108.429H807.047L783.044 70.0681V108.429H775.326V54.5575H782.042L805.97 92.9182V54.5575H813.687V108.429Z" fill="#C5258F"/>
<path d="M843.376 109.212C832.339 109.212 824.697 104.506 822.152 94.0855L829.485 92.6932C831.261 99.4846 836.894 101.879 843.376 101.879C848.782 101.879 855.264 99.0247 855.264 92.6932C855.264 79.5703 824.004 87.754 824.004 68.5327C824.004 58.6543 832.881 53.9482 841.833 53.9482C850.785 53.9482 857.117 57.2683 861.13 65.3701L854.49 68.3815C851.711 63.2092 847.849 61.2058 841.833 61.2058C837.587 61.2058 831.646 62.9824 831.646 68.539C831.646 79.8097 862.982 72.6277 862.982 92.6995C862.982 103.353 853.337 109.218 843.376 109.218V109.212Z" fill="#C5258F"/>
<path d="M903.172 52.5575V75.0175H923.868V52.5575H935.585V110.429H923.868V86.2684H903.172V110.429H891.455V52.5575H903.172Z" fill="black" stroke="white" stroke-width="4"/>
<path d="M953.44 52.5588V85.511C953.44 89.6574 953.915 93.1992 955.386 95.6672C956.732 97.9239 959.083 99.5627 963.713 99.5627C968.361 99.5626 970.752 97.9467 972.127 95.7043C973.625 93.2601 974.135 89.7257 974.135 85.511V52.5588H985.778V85.8947C985.778 92.9621 984.438 99.2731 980.892 103.849C977.27 108.523 971.616 111.047 963.788 111.047C955.949 111.047 950.283 108.477 946.647 103.791C943.085 99.2004 941.722 92.8933 941.722 85.8947V52.5588H953.44Z" fill="black" stroke="white" stroke-width="4"/>
<path d="M1013.12 52.5512C1018.4 52.5512 1023.4 53.6103 1027.13 56.3549C1030.96 59.1748 1033.18 63.5755 1033.18 69.602C1033.18 73.3033 1031.9 77.1179 1028.93 80.0541C1033.31 83.1623 1035.19 87.9937 1035.19 92.7543C1035.19 99.036 1032.91 103.596 1028.96 106.51C1025.11 109.345 1019.93 110.421 1014.44 110.421V110.422H991.981V52.5512H1013.12ZM1003.7 99.0834H1014.44C1017.25 99.0834 1019.54 98.7782 1021.1 97.8823C1021.83 97.461 1022.39 96.9124 1022.79 96.1713C1023.19 95.4159 1023.47 94.3507 1023.47 92.8237C1023.47 89.86 1022.44 88.4709 1021.1 87.6733C1019.56 86.7516 1017.27 86.4135 1014.44 86.4135H1003.7V99.0834ZM1003.7 75.6977H1013.43C1016.13 75.6977 1018.19 75.3413 1019.54 74.4838C1020.7 73.7466 1021.62 72.4524 1021.62 69.6713C1021.62 68.2637 1021.36 67.2862 1020.99 66.5952C1020.63 65.917 1020.11 65.4098 1019.44 65.017C1017.99 64.1802 1015.85 63.8784 1013.2 63.8784H1003.7V75.6977Z" fill="black" stroke="white" stroke-width="4"/>
</svg>
