<svg width="1052" height="160" viewBox="0 0 1052 160" fill="none" xmlns="http://www.w3.org/2000/svg">
<path d="M68.8225 62.1175H41.4994V77.017H65.8867V84.1927H41.4994V108.429H33.8575V54.5512H68.8225V62.1175Z" fill="#C5258F"/>
<path d="M115.625 108.429H107.29L101.809 93.6112H80.5089L75.0279 108.429H66.7686L87.4515 54.5575H94.8603L115.625 108.429ZM99.3396 86.8198L91.1559 65.1289L83.0541 86.8198H99.3396Z" fill="#C5258F"/>
<path d="M129.676 108.429H121.958V54.5575H129.676V108.429Z" fill="#C5258F"/>
<path d="M165.767 84.4195C167.002 85.3456 168.161 87.0466 169.012 88.4326L181.436 108.423H172.483L161.37 89.743C159.751 86.9647 158.434 85.1881 154.812 85.1881H149.022V108.423H141.305V54.5512H160.444C170.707 54.5512 178.349 59.1817 178.349 70.0681C178.349 77.5525 173.794 82.8823 165.767 84.4258V84.4195ZM160.444 62.0356H149.022V78.3967H160.444C166.158 78.3967 170.631 76.702 170.631 70.1374C170.631 63.5728 166 62.0356 160.444 62.0356Z" fill="#C5258F"/>
<path d="M226.038 53.0512C236.689 53.0513 243.44 54.9339 247.37 59.8149C251.219 64.5928 252.006 71.8591 252.006 81.4897C252.006 91.1204 251.219 98.3874 247.37 103.165C243.439 108.046 236.689 109.929 226.038 109.929H224.538V109.922H209.254V53.0512H226.038ZM219.971 99.2807H227.581C234.972 99.2807 238.09 98.0114 239.639 95.3881L239.642 95.3832C240.244 94.3364 240.65 92.9353 240.903 91.0453L241.002 90.2055C241.244 87.8823 241.283 85.0439 241.283 81.5659C241.283 78.5229 241.252 75.9092 241.077 73.6879L240.993 72.7592C240.742 70.346 240.291 68.5993 239.573 67.3725L239.57 67.3666L239.567 67.3608L239.416 67.1313C237.813 64.795 234.646 63.6108 227.581 63.6108H219.971V99.2807Z" fill="black" stroke="white"/>
<path d="M281.636 53.0575L282.006 54.0175L302.771 107.89L303.557 109.929H291.992L291.629 108.949L286.632 95.4374L286.511 95.1112H267.3L267.179 95.4374L262.181 108.949L261.819 109.929H250.333L251.115 107.891L271.796 54.0204L272.167 53.0575H281.636ZM276.443 70.6444L271.213 84.6454L270.961 85.3202H282.917L282.662 84.6434L277.378 70.6425L276.909 69.3964L276.443 70.6444Z" fill="black" stroke="white"/>
<path d="M339.042 53.0575V63.6239H322.832V109.929H312.114V63.6239H295.904V53.0575H339.042Z" fill="black" stroke="white"/>
<path d="M362.766 53.0575L363.136 54.0175L383.901 107.89L384.687 109.929H373.122L372.759 108.949L367.762 95.4374L367.641 95.1112H348.43L348.309 95.4374L343.311 108.949L342.949 109.929H331.463L332.245 107.891L352.926 54.0204L353.297 53.0575H362.766ZM357.573 70.6444L352.343 84.6454L352.091 85.3202H364.047L363.792 84.6434L358.508 70.6425L358.039 69.3964L357.573 70.6444Z" fill="black" stroke="white"/>
<path d="M418.716 108.429H410.998V54.5575H418.716V108.429Z" fill="#C5258F"/>
<path d="M468.697 108.429H462.057L438.054 70.0681V108.429H430.336V54.5575H437.052L460.98 92.9182V54.5575H468.697V108.429Z" fill="#C5258F"/>
<path d="M517.897 108.429H511.257L487.254 70.0681V108.429H479.536V54.5575H486.252L510.18 92.9182V54.5575H517.897V108.429Z" fill="#C5258F"/>
<path d="M548.43 109.056C532.22 109.056 526.43 95.7002 526.43 81.5C526.43 67.2998 532.22 53.9438 548.43 53.9438C564.64 53.9438 570.43 67.2179 570.43 81.5C570.43 95.7821 564.564 109.056 548.43 109.056ZM548.43 61.5101C536.542 61.5101 534.148 72.239 534.148 81.5C534.148 90.761 536.542 101.49 548.43 101.49C560.318 101.49 562.63 90.761 562.63 81.5C562.63 72.239 560.312 61.5101 548.43 61.5101Z" fill="#C5258F"/>
<path d="M616.94 54.5512L598.726 108.423H591.16L572.947 54.5512H581.049L594.94 96.925L608.831 54.5512H616.933H616.94Z" fill="#C5258F"/>
<path d="M661.705 108.429H653.37L647.889 93.6112H626.589L621.108 108.429H612.849L633.532 54.5575H640.94L661.705 108.429ZM645.42 86.8198L637.236 65.1289L629.134 86.8198H645.42Z" fill="#C5258F"/>
<path d="M697.882 62.1238H681.672V108.429H673.954V62.1238H657.745V54.5575H697.882V62.1238Z" fill="#C5258F"/>
<path d="M713.512 108.429H705.794V54.5575H713.512V108.429Z" fill="#C5258F"/>
<path d="M744.83 109.056C728.62 109.056 722.83 95.7002 722.83 81.5C722.83 67.2998 728.62 53.9438 744.83 53.9438C761.04 53.9438 766.83 67.2179 766.83 81.5C766.83 95.7821 760.964 109.056 744.83 109.056ZM744.83 61.5101C732.942 61.5101 730.548 72.239 730.548 81.5C730.548 90.761 732.942 101.49 744.83 101.49C756.718 101.49 759.03 90.761 759.03 81.5C759.03 72.239 756.712 61.5101 744.83 61.5101Z" fill="#C5258F"/>
<path d="M813.687 108.429H807.047L783.044 70.0681V108.429H775.326V54.5575H782.042L805.97 92.9182V54.5575H813.687V108.429Z" fill="#C5258F"/>
<path d="M843.376 109.212C832.339 109.212 824.697 104.506 822.152 94.0855L829.485 92.6932C831.261 99.4846 836.894 101.879 843.376 101.879C848.782 101.879 855.264 99.0247 855.264 92.6932C855.264 79.5703 824.004 87.754 824.004 68.5327C824.004 58.6543 832.881 53.9482 841.833 53.9482C850.785 53.9482 857.117 57.2683 861.13 65.3701L854.49 68.3815C851.711 63.2092 847.849 61.2058 841.833 61.2058C837.587 61.2058 831.646 62.9824 831.646 68.539C831.646 79.8097 862.982 72.6277 862.982 92.6995C862.982 103.353 853.337 109.218 843.376 109.218V109.212Z" fill="#C5258F"/>
<path d="M902.672 53.0575V75.5175H924.368V53.0575H935.085V109.929H924.368V85.7684H902.672V109.929H891.955V53.0575H902.672Z" fill="black" stroke="white"/>
<path d="M952.94 53.0588V85.511C952.94 89.6716 953.412 93.3315 954.956 95.9231C955.67 97.1201 956.66 98.1652 958.088 98.9055C959.511 99.643 961.341 100.063 963.713 100.063C966.094 100.063 967.936 99.6486 969.373 98.9201C970.816 98.1892 971.823 97.1561 972.553 95.966C974.127 93.3972 974.635 89.7425 974.635 85.511V53.0588H985.278V85.8947C985.278 92.9128 983.945 99.0936 980.496 103.543C976.992 108.066 971.502 110.547 963.788 110.547C956.066 110.547 950.563 108.021 947.042 103.485C943.577 99.0192 942.222 92.8416 942.222 85.8947V53.0588H952.94Z" fill="black" stroke="white"/>
<path d="M1013.12 53.0512C1018.18 53.0512 1022.92 54.0363 1026.49 56.5131L1026.83 56.7573C1030.52 59.4701 1032.68 63.7115 1032.68 69.602C1032.68 73.1889 1031.44 76.8691 1028.58 79.6987L1028.15 80.1176L1028.64 80.4623C1032.86 83.4592 1034.69 88.1231 1034.69 92.7543C1034.69 98.7103 1032.6 103.026 1029.02 105.84L1028.66 106.108C1025.17 108.682 1020.5 109.781 1015.45 109.909L1014.44 109.921H992.481V53.0512H1013.12ZM1003.2 99.5834H1014.44C1017.26 99.5834 1019.67 99.2818 1021.35 98.3159L1021.35 98.3149C1022.15 97.8516 1022.78 97.2384 1023.23 96.4086L1023.23 96.4057C1023.68 95.5615 1023.97 94.4109 1023.97 92.8237C1023.97 91.2855 1023.7 90.1128 1023.23 89.2055C1022.76 88.2924 1022.09 87.6817 1021.36 87.2436C1019.69 86.2487 1017.28 85.9135 1014.44 85.9135H1003.2V99.5834ZM1003.2 76.1977H1013.43C1016.15 76.1977 1018.33 75.8431 1019.81 74.9057C1020.45 74.4947 1021.04 73.9212 1021.46 73.0649C1021.88 72.2148 1022.12 71.1152 1022.12 69.6713C1022.12 68.203 1021.85 67.1393 1021.43 66.3588C1021.02 65.5895 1020.43 65.0184 1019.69 64.5854L1019.69 64.5844L1019.39 64.4213C1017.84 63.6413 1015.7 63.3784 1013.2 63.3784H1003.2V76.1977Z" fill="black" stroke="white"/>
</svg>
