<svg width="1491" height="264" viewBox="0 0 1491 264" fill="none" xmlns="http://www.w3.org/2000/svg">
<g clip-path="url(#clip0_1_609)">
<path d="M168.49 208.46V237.27L142.56 261.02H90.56L63.39 237.27V208.46" stroke="black" stroke-width="4.44" stroke-miterlimit="10"/>
<path d="M57.3 24.6901L17.58 93.4801" stroke="black" stroke-width="4.44" stroke-miterlimit="10"/>
<path d="M156.28 14.1901H75.6" stroke="black" stroke-width="4.44" stroke-miterlimit="10"/>
<path d="M214.16 93.2401L174.58 24.6901" stroke="black" stroke-width="4.44" stroke-miterlimit="10"/>
<path d="M214.24 117.15L174.65 185.71" stroke="black" stroke-width="4.44" stroke-miterlimit="10"/>
<path d="M156.28 196.33H75.6" stroke="black" stroke-width="4.44" stroke-miterlimit="10"/>
<path d="M17.5 116.91L57.23 185.71" stroke="black" stroke-width="4.44" stroke-miterlimit="10"/>
<path d="M63.39 237.28H168.49" stroke="black" stroke-width="4.44" stroke-miterlimit="10"/>
<path d="M162.43 24.7101L122.07 94.6301" stroke="black" stroke-width="4.44" stroke-miterlimit="10"/>
<path d="M204.46 105.18H128.15" stroke="black" stroke-width="4.44" stroke-miterlimit="10"/>
<path d="M109.83 94.6201L69.4399 24.7101" stroke="black" stroke-width="4.44" stroke-miterlimit="10"/>
<path d="M162.43 185.66L122.04 115.75" stroke="black" stroke-width="4.44" stroke-miterlimit="10"/>
<path d="M109.87 115.77L69.5 185.68" stroke="black" stroke-width="4.44" stroke-miterlimit="10"/>
<path d="M65.41 184.22C64.75 184.11 64.08 184.05 63.39 184.05C61.14 184.05 59.04 184.65 57.23 185.71C54.82 187.12 52.94 189.33 51.95 191.98L8.67004 117.01L9.54004 116.51C10.95 117.08 12.48 117.39 14.09 117.39C15.27 117.39 16.41 117.22 17.49 116.91C20.1 116.16 22.36 114.55 23.94 112.4L65.4 184.22H65.41Z" fill="black"/>
<path d="M65.41 26.15L23.95 97.96C22.39 95.84 20.16 94.24 17.58 93.48C16.48 93.16 15.31 92.98 14.1 92.98C11.85 92.98 9.73004 93.59 7.92004 94.66L51.95 18.39C52.95 21.06 54.86 23.29 57.3 24.69C59.09 25.73 61.17 26.32 63.39 26.32C64.08 26.32 64.75 26.26 65.41 26.15Z" fill="black"/>
<path d="M156.28 14.19C156.3 17.11 157.35 19.79 159.08 21.88H72.8C74.54 19.77 75.59 17.06 75.59 14.11C75.59 11.16 74.54 8.44997 72.8 6.33997H159.08C157.33 8.44997 156.28 11.16 156.28 14.11V14.19Z" fill="black"/>
<path d="M104.79 97.4499V110.13L104.78 112.99L25.42 112.96V109.75C25.99 108.34 26.31 106.8 26.31 105.18C26.31 103.56 26 102.03 25.43 100.62V97.4199L104.79 97.4499Z" fill="black"/>
<path d="M168.49 208.47C175.233 208.47 180.7 203.003 180.7 196.26C180.7 189.517 175.233 184.05 168.49 184.05C161.747 184.05 156.28 189.517 156.28 196.26C156.28 203.003 161.747 208.47 168.49 208.47Z" stroke="black" stroke-width="3.81" stroke-miterlimit="10"/>
<path d="M216.67 117.39C223.413 117.39 228.88 111.923 228.88 105.18C228.88 98.4366 223.413 92.97 216.67 92.97C209.927 92.97 204.46 98.4366 204.46 105.18C204.46 111.923 209.927 117.39 216.67 117.39Z" stroke="black" stroke-width="3.81" stroke-miterlimit="10"/>
<path d="M75.59 14.11C75.59 17.06 74.5401 19.77 72.8001 21.88C71.8601 23.02 70.7201 23.98 69.4401 24.71C68.2101 25.42 66.8501 25.91 65.4101 26.15C64.7501 26.26 64.0801 26.32 63.3901 26.32C61.1701 26.32 59.0901 25.73 57.3001 24.69C54.8601 23.29 52.9501 21.06 51.9501 18.39C51.4501 17.06 51.1801 15.62 51.1801 14.11C51.1801 7.37002 56.6501 1.90002 63.3901 1.90002C67.1801 1.90002 70.5601 3.63002 72.8001 6.34002C74.5401 8.45002 75.59 11.16 75.59 14.11Z" stroke="black" stroke-width="3.81" stroke-miterlimit="10"/>
<path d="M75.59 196.26C75.59 203 70.1301 208.46 63.3901 208.46C56.6501 208.46 51.1801 203 51.1801 196.26C51.1801 194.75 51.4501 193.31 51.9501 191.98C52.9401 189.33 54.8201 187.12 57.2301 185.71C59.0401 184.65 61.1401 184.05 63.3901 184.05C64.0801 184.05 64.7501 184.11 65.4101 184.22C66.8801 184.46 68.2601 184.96 69.5001 185.68C73.1401 187.8 75.59 191.74 75.59 196.26Z" stroke="black" stroke-width="3.81" stroke-miterlimit="10"/>
<path d="M180.7 14.11C180.7 20.85 175.23 26.32 168.49 26.32C164.7 26.32 161.32 24.59 159.08 21.88C157.35 19.79 156.3 17.11 156.28 14.19V14.11C156.28 11.16 157.33 8.45002 159.08 6.34002C161.32 3.63002 164.7 1.90002 168.49 1.90002C175.23 1.90002 180.7 7.37002 180.7 14.11Z" stroke="black" stroke-width="3.81" stroke-miterlimit="10"/>
<path d="M26.31 105.18C26.31 106.8 25.99 108.34 25.42 109.75C25.04 110.7 24.54 111.59 23.95 112.4C22.37 114.55 20.11 116.16 17.5 116.91C16.42 117.22 15.28 117.39 14.1 117.39C12.49 117.39 10.96 117.08 9.55003 116.51C5.07003 114.7 1.91003 110.31 1.91003 105.18C1.91003 100.69 4.33003 96.78 7.93003 94.66C9.74003 93.59 11.86 92.98 14.11 92.98C15.32 92.98 16.49 93.16 17.59 93.48C20.17 94.24 22.4 95.84 23.96 97.96C24.55 98.77 25.05 99.67 25.44 100.62C26.01 102.03 26.32 103.57 26.32 105.18H26.31Z" stroke="black" stroke-width="3.81" stroke-miterlimit="10"/>
<path d="M115.94 117.39C122.683 117.39 128.15 111.923 128.15 105.18C128.15 98.4366 122.683 92.97 115.94 92.97C109.197 92.97 103.73 98.4366 103.73 105.18C103.73 111.923 109.197 117.39 115.94 117.39Z" stroke="black" stroke-width="3.81" stroke-miterlimit="10"/>
</g>
<path d="M308.537 110.161H275.682V128.04H305.007V136.651H275.682V165.735H266.493V101.081H308.537V110.161Z" fill="#C5258F"/>
<path d="M364.816 165.735H354.793L348.202 147.953H322.59L315.999 165.735H306.067L330.938 101.089H339.847L364.816 165.735ZM345.233 139.804L335.392 113.775L325.65 139.804H345.233Z" fill="#C5258F"/>
<path d="M381.712 165.735H372.431V101.089H381.712V165.735Z" fill="#C5258F"/>
<path d="M425.11 136.923C426.595 138.035 427.989 140.076 429.012 141.739L443.952 165.728H433.186L419.823 143.312C417.876 139.978 416.292 137.846 411.937 137.846H404.975V165.728H395.695V101.081H418.709C431.05 101.081 440.24 106.638 440.24 119.702C440.24 128.683 434.762 135.079 425.11 136.931V136.923ZM418.709 110.063H404.975V129.696H418.709C425.58 129.696 430.959 127.662 430.959 119.785C430.959 111.907 425.39 110.063 418.709 110.063Z" fill="#C5258F"/>
<path d="M497.584 99.8815C510.362 99.8816 518.226 102.144 522.769 107.774C527.246 113.322 528.209 121.83 528.209 133.408C528.209 144.986 527.246 153.494 522.769 159.042C518.225 164.672 510.362 166.935 497.584 166.935H496.382V166.926H478.003V99.8815H497.584ZM489.688 155.357H499.44C508.336 155.357 512.412 153.847 514.456 150.392L514.462 150.38C515.241 149.03 515.745 147.261 516.055 144.952L516.177 143.929C516.472 141.106 516.517 137.67 516.517 133.499C516.517 129.85 516.481 126.691 516.268 123.996L516.165 122.869C515.859 119.944 515.308 117.747 514.379 116.165L514.371 116.149L514.361 116.135L514.163 115.833C512.049 112.762 507.944 111.353 499.44 111.353H489.688V155.357Z" fill="black" stroke="white" stroke-width="2"/>
<path d="M564.026 99.889L564.324 100.658L589.293 165.303L589.923 166.935H577.309L577.02 166.15L571.011 149.937L570.72 149.153H546.782L546.491 149.937L540.481 166.151L540.191 166.935H527.672L528.3 165.304L553.168 100.659L553.464 99.889H564.026ZM557.631 120.184L551.344 136.985L550.737 138.604H566.849L566.235 136.98L559.882 120.179L558.752 117.188L557.631 120.184Z" fill="black" stroke="white" stroke-width="2"/>
<path d="M632.867 99.889V111.369H613.375V166.935H601.689V111.369H582.197V99.889H632.867Z" fill="black" stroke="white" stroke-width="2"/>
<path d="M661.582 99.889L661.88 100.658L686.85 165.303L687.48 166.935H674.866L674.576 166.15L668.567 149.937L668.276 149.153H644.339L644.048 149.937L638.038 166.151L637.748 166.935H625.229L625.857 165.304L650.725 100.659L651.021 99.889H661.582ZM655.187 120.184L648.901 136.985L648.294 138.604H664.406L663.791 136.98L657.438 120.179L656.308 117.188L655.187 120.184Z" fill="black" stroke="white" stroke-width="2"/>
<path d="M729.274 165.735H719.993V101.089H729.274V165.735Z" fill="#C5258F"/>
<path d="M789.375 165.735H781.39L752.527 119.702V165.735H743.247V101.089H751.323L780.095 147.122V101.089H789.375V165.735Z" fill="#C5258F"/>
<path d="M848.536 165.735H840.552L811.689 119.702V165.735H802.408V101.089H810.484L839.257 147.122V101.089H848.536V165.735Z" fill="#C5258F"/>
<path d="M885.251 166.487C865.759 166.487 858.797 150.46 858.797 133.42C858.797 116.38 865.759 100.353 885.251 100.353C904.743 100.353 911.706 116.281 911.706 133.42C911.706 150.558 904.652 166.487 885.251 166.487ZM885.251 109.432C870.956 109.432 868.078 122.307 868.078 133.42C868.078 144.533 870.956 157.408 885.251 157.408C899.546 157.408 902.327 144.533 902.327 133.42C902.327 122.307 899.539 109.432 885.251 109.432Z" fill="#C5258F"/>
<path d="M967.633 101.081L945.731 165.728H936.633L914.732 101.081H924.475L941.178 151.93L957.882 101.081H967.624H967.633Z" fill="#C5258F"/>
<path d="M1021.46 165.735H1011.44L1004.85 147.953H979.235L972.645 165.735H962.713L987.584 101.089H996.492L1021.46 165.735ZM1001.88 139.804L992.038 113.775L982.296 139.804H1001.88Z" fill="#C5258F"/>
<path d="M1064.96 110.169H1045.47V165.735H1036.19V110.169H1016.7V101.089H1064.96V110.169Z" fill="#C5258F"/>
<path d="M1083.76 165.735H1074.48V101.089H1083.76V165.735Z" fill="#C5258F"/>
<path d="M1121.42 166.487C1101.92 166.487 1094.96 150.46 1094.96 133.42C1094.96 116.38 1101.92 100.353 1121.42 100.353C1140.91 100.353 1147.87 116.281 1147.87 133.42C1147.87 150.558 1140.82 166.487 1121.42 166.487ZM1121.42 109.432C1107.12 109.432 1104.24 122.307 1104.24 133.42C1104.24 144.533 1107.12 157.408 1121.42 157.408C1135.71 157.408 1138.49 144.533 1138.49 133.42C1138.49 122.307 1135.7 109.432 1121.42 109.432Z" fill="#C5258F"/>
<path d="M1204.22 165.735H1196.23L1167.37 119.702V165.735H1158.09V101.089H1166.16L1194.94 147.122V101.089H1204.22V165.735Z" fill="#C5258F"/>
<path d="M1239.92 166.674C1226.64 166.674 1217.45 161.027 1214.39 148.523L1223.21 146.852C1225.35 155.001 1232.12 157.875 1239.92 157.875C1246.42 157.875 1254.21 154.45 1254.21 146.852C1254.21 131.104 1216.62 140.925 1216.62 117.859C1216.62 106.005 1227.3 100.358 1238.06 100.358C1248.82 100.358 1256.44 104.342 1261.26 114.064L1253.28 117.678C1249.94 111.471 1245.29 109.067 1238.06 109.067C1232.95 109.067 1225.81 111.199 1225.81 117.867C1225.81 131.392 1263.49 122.773 1263.49 146.859C1263.49 159.644 1251.89 166.682 1239.92 166.682V166.674Z" fill="#C5258F"/>
<path d="M1310.62 99.889V126.841H1337.91V99.889H1349.59V166.935H1337.91V137.942H1310.62V166.935H1298.93V99.889H1310.62Z" fill="black" stroke="white" stroke-width="2"/>
<path d="M1371.06 99.8905V138.233C1371.06 143.243 1371.63 147.777 1373.57 151.035C1374.48 152.553 1375.75 153.892 1377.58 154.839C1379.4 155.778 1381.7 156.296 1384.62 156.296C1387.55 156.296 1389.86 155.787 1391.7 154.86C1393.54 153.926 1394.83 152.603 1395.76 151.092C1397.74 147.86 1398.35 143.331 1398.35 138.233V99.8905H1409.95V138.694C1409.95 147.056 1408.35 154.316 1404.32 159.504C1400.25 164.75 1393.85 167.676 1384.71 167.676C1375.56 167.676 1369.14 164.699 1365.05 159.434C1361 154.225 1359.38 146.968 1359.38 138.694V99.8905H1371.06Z" fill="black" stroke="white" stroke-width="2"/>
<path d="M1444.03 99.8815C1450.24 99.8815 1455.97 101.131 1460.17 104.213C1464.42 107.34 1466.95 112.237 1466.95 119.142C1466.95 123.309 1465.5 127.564 1462.2 130.832L1461.18 131.836L1462.34 132.664C1467.24 136.126 1469.36 141.522 1469.36 146.925C1469.36 154.142 1466.75 159.228 1462.37 162.466C1458.29 165.454 1452.83 166.76 1446.82 166.911L1445.62 166.925H1419.81V99.8815H1444.03ZM1431.5 155.72H1445.62C1449.02 155.72 1452.05 155.363 1454.22 154.119C1455.28 153.513 1456.11 152.697 1456.71 151.595V151.587C1457.32 150.467 1457.68 148.985 1457.68 147.008C1457.68 145.095 1457.34 143.587 1456.71 142.39C1456.17 141.331 1455.42 140.578 1454.6 140.023L1454.24 139.797C1452.1 138.514 1449.05 138.116 1445.62 138.116H1431.5V155.72ZM1431.5 127.657H1444.4C1447.7 127.657 1450.46 127.234 1452.4 126.013C1453.25 125.469 1454.04 124.701 1454.6 123.562C1455.15 122.438 1455.45 121.022 1455.45 119.226C1455.45 117.393 1455.11 116.015 1454.55 114.972C1454.01 113.937 1453.2 113.174 1452.24 112.606L1452.23 112.601L1451.83 112.391C1449.84 111.386 1447.14 111.074 1444.12 111.074H1431.5V127.657Z" fill="black" stroke="white" stroke-width="2"/>
<defs>
<clipPath id="clip0_1_609">
<rect width="230.78" height="263.24" fill="white"/>
</clipPath>
</defs>
</svg>
