<svg width="1491" height="264" viewBox="0 0 1491 264" fill="none" xmlns="http://www.w3.org/2000/svg">
<g clip-path="url(#clip0_1_607)">
<mask id="mask0_1_607" style="mask-type:luminance" maskUnits="userSpaceOnUse" x="0" y="0" width="231" height="264">
<path d="M230.78 0H0V263.24H230.78V0Z" fill="white"/>
</mask>
<g mask="url(#mask0_1_607)">
<path d="M63.4 196.26V196.33V208.46V237.27L90.57 261.02H142.56L168.5 237.27V208.46" stroke="white" stroke-width="4.44" stroke-miterlimit="10"/>
<path d="M214.25 117.15L174.66 185.71" stroke="white" stroke-width="4.44" stroke-miterlimit="10"/>
<path d="M162.44 185.66L122.05 115.75C125.7 113.65 128.15 109.7 128.15 105.18H204.47" stroke="white" stroke-width="4.44" stroke-miterlimit="10"/>
<path d="M156.29 196.33H75.6H63.4H63.37L57.24 185.71L17.5 116.91V116.9L10.78 105.26L10.82 105.19L10.83 105.18L17.58 93.48L57.31 24.69L63.37 14.19H75.6H156.29H168.51H168.53L174.59 24.69L214.17 93.24" stroke="white" stroke-width="4.44" stroke-miterlimit="10"/>
<path d="M162.44 185.66L122.05 115.75C125.7 113.65 128.15 109.7 128.15 105.18H204.47" stroke="white" stroke-width="4.44" stroke-miterlimit="10"/>
<path d="M63.39 237.27H168.5" stroke="white" stroke-width="4.44" stroke-miterlimit="10"/>
<path d="M115.99 105.18L168.56 14.11" stroke="white" stroke-width="4.44" stroke-miterlimit="10"/>
<path d="M128.15 105.18H115.99" stroke="white" stroke-width="4.44" stroke-miterlimit="10"/>
<path d="M63.37 14.19L69.45 24.71L109.84 94.62L115.96 105.22L122.05 115.75" stroke="white" stroke-width="4.44" stroke-miterlimit="10"/>
<path d="M115.99 105.18L63.39 196.26" stroke="white" stroke-width="4.44" stroke-miterlimit="10"/>
<path d="M168.56 14.11H63.3901L10.8101 105.18L63.3901 196.26" stroke="#D042A7" stroke-width="15.54" stroke-miterlimit="10"/>
<path d="M115.94 105.26L10.8 105.18" stroke="#D042A7" stroke-width="15.54" stroke-miterlimit="10"/>
<path d="M63.3901 26.32C70.1335 26.32 75.6001 20.8534 75.6001 14.11C75.6001 7.36657 70.1335 1.89996 63.3901 1.89996C56.6467 1.89996 51.1801 7.36657 51.1801 14.11C51.1801 20.8534 56.6467 26.32 63.3901 26.32Z" fill="#D042A7" stroke="white" stroke-width="3.81" stroke-miterlimit="10"/>
<path d="M63.3901 208.47C70.1335 208.47 75.6001 203.003 75.6001 196.26C75.6001 189.517 70.1335 184.05 63.3901 184.05C56.6467 184.05 51.1801 189.517 51.1801 196.26C51.1801 203.003 56.6467 208.47 63.3901 208.47Z" fill="#D042A7" stroke="white" stroke-width="3.81" stroke-miterlimit="10"/>
<path d="M180.71 196.26C180.71 203 175.24 208.46 168.5 208.46C161.76 208.46 156.33 203.04 156.29 196.33V196.26C156.29 191.72 158.77 187.76 162.44 185.66C164.23 184.63 166.29 184.05 168.5 184.05C170.71 184.05 172.85 184.65 174.66 185.71C178.28 187.83 180.71 191.76 180.71 196.26Z" stroke="white" stroke-width="3.81" stroke-miterlimit="10"/>
<path d="M168.5 26.32C175.243 26.32 180.71 20.8534 180.71 14.11C180.71 7.36657 175.243 1.89996 168.5 1.89996C161.757 1.89996 156.29 7.36657 156.29 14.11C156.29 20.8534 161.757 26.32 168.5 26.32Z" fill="#D042A7" stroke="white" stroke-width="3.81" stroke-miterlimit="10"/>
<path d="M228.88 105.18C228.88 111.92 223.42 117.39 216.67 117.39C215.84 117.39 215.03 117.31 214.25 117.15C208.67 116.03 204.47 111.09 204.47 105.18C204.47 99.27 208.63 94.39 214.17 93.24C214.98 93.07 215.81 92.98 216.67 92.98C223.42 92.98 228.88 98.44 228.88 105.18Z" stroke="white" stroke-width="3.81" stroke-miterlimit="10"/>
<path d="M14.11 117.39C20.8534 117.39 26.32 111.923 26.32 105.18C26.32 98.4366 20.8534 92.97 14.11 92.97C7.36663 92.97 1.90002 98.4366 1.90002 105.18C1.90002 111.923 7.36663 117.39 14.11 117.39Z" fill="#D042A7" stroke="white" stroke-width="3.81" stroke-miterlimit="10"/>
<path d="M128.15 105.18C128.15 109.7 125.7 113.65 122.05 115.75C120.25 116.79 118.17 117.39 115.95 117.39C113.73 117.39 111.67 116.8 109.88 115.77C106.23 113.68 103.77 109.75 103.74 105.25V105.18C103.74 100.67 106.19 96.73 109.84 94.62C111.64 93.58 113.72 92.98 115.95 92.98C118.18 92.98 120.28 93.58 122.08 94.63C125.71 96.74 128.15 100.67 128.15 105.18Z" fill="#D042A7" stroke="white" stroke-width="3.81" stroke-miterlimit="10"/>
</g>
</g>
<path d="M308.757 110.429H275.902V128.402H305.227V137.057H275.902V166.292H266.713V101.302H308.757V110.429Z" fill="#C5258F"/>
<path d="M365.036 166.292H355.013L348.422 148.419H322.81L316.219 166.292H306.287L331.158 101.31H340.067L365.036 166.292ZM345.453 140.226L335.612 114.062L325.87 140.226H345.453Z" fill="#C5258F"/>
<path d="M381.932 166.292H372.651V101.31H381.932V166.292Z" fill="#C5258F"/>
<path d="M425.33 137.331C426.815 138.448 428.209 140.5 429.232 142.172L444.172 166.285H433.406L420.043 143.752C418.096 140.401 416.512 138.258 412.157 138.258H405.195V166.285H395.915V101.302H418.929C431.27 101.302 440.46 106.888 440.46 120.02C440.46 129.048 434.982 135.477 425.33 137.339V137.331ZM418.929 110.33H405.195V130.066H418.929C425.8 130.066 431.179 128.022 431.179 120.103C431.179 112.185 425.61 110.33 418.929 110.33Z" fill="#C5258F"/>
<path d="M497.804 100.096C510.582 100.096 518.446 102.371 522.989 108.03C527.466 113.607 528.429 122.159 528.429 133.797C528.429 145.435 527.466 153.988 522.989 159.565C518.445 165.224 510.582 167.499 497.804 167.499H496.602V167.49H478.223V100.096H497.804ZM489.908 155.86H499.66C508.556 155.86 512.632 154.343 514.676 150.869L514.682 150.858C515.461 149.5 515.965 147.723 516.275 145.401L516.397 144.373C516.691 141.535 516.737 138.081 516.737 133.889C516.737 130.22 516.701 127.045 516.488 124.337L516.385 123.203C516.079 120.263 515.527 118.055 514.599 116.464L514.591 116.449L514.581 116.435L514.383 116.131C512.269 113.044 508.164 111.627 499.66 111.627H489.908V155.86Z" fill="black" stroke="white" stroke-width="2"/>
<path d="M564.246 100.104L564.544 100.876L589.513 165.858L590.143 167.499H577.529L577.239 166.71L571.231 150.413L570.94 149.625H547.002L546.711 150.413L540.701 166.711L540.411 167.499H527.892L528.52 165.859L553.388 100.878L553.684 100.104H564.246ZM557.851 120.504L551.564 137.393L550.957 139.021H567.069L566.455 137.388L560.102 120.499L558.972 117.493L557.851 120.504Z" fill="black" stroke="white" stroke-width="2"/>
<path d="M633.087 100.104V111.643H613.595V167.499H601.909V111.643H582.417V100.104H633.087Z" fill="black" stroke="white" stroke-width="2"/>
<path d="M661.802 100.104L662.1 100.876L687.07 165.858L687.7 167.499H675.086L674.796 166.71L668.787 150.413L668.496 149.625H644.559L644.268 150.413L638.258 166.711L637.968 167.499H625.449L626.077 165.859L650.945 100.878L651.241 100.104H661.802ZM655.407 120.504L649.121 137.393L648.514 139.021H664.625L664.011 137.388L657.658 120.499L656.528 117.493L655.407 120.504Z" fill="black" stroke="white" stroke-width="2"/>
<path d="M729.494 166.292H720.213V101.31H729.494V166.292Z" fill="#C5258F"/>
<path d="M789.595 166.292H781.61L752.747 120.02V166.292H743.467V101.31H751.543L780.315 147.583V101.31H789.595V166.292Z" fill="#C5258F"/>
<path d="M848.756 166.292H840.772L811.909 120.02V166.292H802.628V101.31H810.704L839.477 147.583V101.31H848.756V166.292Z" fill="#C5258F"/>
<path d="M885.471 167.049C865.979 167.049 859.017 150.938 859.017 133.809C859.017 116.68 865.979 100.57 885.471 100.57C904.963 100.57 911.926 116.582 911.926 133.809C911.926 151.037 904.872 167.049 885.471 167.049ZM885.471 109.697C871.176 109.697 868.298 122.638 868.298 133.809C868.298 144.98 871.176 157.922 885.471 157.922C899.766 157.922 902.547 144.98 902.547 133.809C902.547 122.638 899.759 109.697 885.471 109.697Z" fill="#C5258F"/>
<path d="M967.853 101.302L945.951 166.285H936.853L914.952 101.302H924.695L941.398 152.416L958.102 101.302H967.844H967.853Z" fill="#C5258F"/>
<path d="M1021.68 166.292H1011.66L1005.07 148.419H979.455L972.865 166.292H962.933L987.804 101.31H996.712L1021.68 166.292ZM1002.1 140.226L992.258 114.062L982.516 140.226H1002.1Z" fill="#C5258F"/>
<path d="M1065.18 110.437H1045.69V166.292H1036.41V110.437H1016.92V101.31H1065.18V110.437Z" fill="#C5258F"/>
<path d="M1083.98 166.292H1074.7V101.31H1083.98V166.292Z" fill="#C5258F"/>
<path d="M1121.64 167.049C1102.14 167.049 1095.18 150.938 1095.18 133.809C1095.18 116.68 1102.14 100.57 1121.64 100.57C1141.13 100.57 1148.09 116.582 1148.09 133.809C1148.09 151.037 1141.04 167.049 1121.64 167.049ZM1121.64 109.697C1107.34 109.697 1104.46 122.638 1104.46 133.809C1104.46 144.98 1107.34 157.922 1121.64 157.922C1135.93 157.922 1138.71 144.98 1138.71 133.809C1138.71 122.638 1135.92 109.697 1121.64 109.697Z" fill="#C5258F"/>
<path d="M1204.44 166.292H1196.45L1167.59 120.02V166.292H1158.31V101.31H1166.38L1195.16 147.583V101.31H1204.44V166.292Z" fill="#C5258F"/>
<path d="M1240.14 167.237C1226.86 167.237 1217.67 161.56 1214.61 148.991L1223.43 147.311C1225.57 155.503 1232.34 158.392 1240.14 158.392C1246.64 158.392 1254.43 154.949 1254.43 147.311C1254.43 131.482 1216.84 141.353 1216.84 118.168C1216.84 106.252 1227.52 100.575 1238.28 100.575C1249.04 100.575 1256.66 104.58 1261.48 114.353L1253.5 117.985C1250.16 111.746 1245.51 109.329 1238.28 109.329C1233.17 109.329 1226.03 111.473 1226.03 118.175C1226.03 131.77 1263.71 123.107 1263.71 147.319C1263.71 160.17 1252.11 167.244 1240.14 167.244V167.237Z" fill="#C5258F"/>
<path d="M1310.84 100.104V127.196H1338.13V100.104H1349.81V167.499H1338.13V138.355H1310.84V167.499H1299.15V100.104H1310.84Z" fill="black" stroke="white" stroke-width="2"/>
<path d="M1371.28 100.105V138.648C1371.28 143.683 1371.85 148.241 1373.79 151.516C1374.7 153.043 1375.97 154.388 1377.8 155.339C1379.62 156.284 1381.92 156.804 1384.84 156.804C1387.77 156.804 1390.08 156.293 1391.92 155.361C1393.76 154.422 1395.05 153.093 1395.98 151.574C1397.96 148.325 1398.57 143.772 1398.57 138.648V100.105H1410.17V139.11C1410.17 147.517 1408.57 154.814 1404.54 160.03C1400.47 165.302 1394.07 168.244 1384.93 168.244C1375.78 168.244 1369.36 165.251 1365.27 159.958C1361.22 154.723 1359.6 147.428 1359.6 139.11V100.105H1371.28Z" fill="black" stroke="white" stroke-width="2"/>
<path d="M1444.25 100.096C1450.46 100.096 1456.19 101.352 1460.39 104.45C1464.64 107.593 1467.17 112.516 1467.17 119.457C1467.17 123.646 1465.72 127.923 1462.42 131.208L1461.4 132.217L1462.56 133.049C1467.46 136.53 1469.58 141.954 1469.58 147.385C1469.58 154.64 1466.97 159.752 1462.59 163.007C1458.51 166.01 1453.05 167.323 1447.04 167.475L1445.84 167.489H1420.03V100.096H1444.25ZM1431.72 156.225H1445.84C1449.24 156.225 1452.27 155.866 1454.44 154.617C1455.5 154.007 1456.33 153.187 1456.93 152.079V152.071C1457.54 150.945 1457.9 149.456 1457.9 147.469C1457.9 145.545 1457.56 144.029 1456.93 142.826C1456.39 141.761 1455.64 141.005 1454.82 140.447L1454.46 140.219C1452.32 138.93 1449.27 138.53 1445.84 138.53H1431.72V156.225ZM1431.72 128.017H1444.62C1447.92 128.017 1450.68 127.591 1452.62 126.364C1453.47 125.817 1454.26 125.045 1454.82 123.9C1455.37 122.77 1455.67 121.347 1455.67 119.541C1455.67 117.699 1455.33 116.314 1454.77 115.265C1454.23 114.225 1453.42 113.458 1452.46 112.887L1452.45 112.882L1452.05 112.671C1450.06 111.661 1447.36 111.347 1444.34 111.347H1431.72V128.017Z" fill="black" stroke="white" stroke-width="2"/>
<defs>
<clipPath id="clip0_1_607">
<rect width="231" height="264" fill="white"/>
</clipPath>
</defs>
</svg>
