<svg width="1052" height="160" viewBox="0 0 1052 160" fill="none" xmlns="http://www.w3.org/2000/svg">
<path d="M68.8225 62.1175H41.4994V77.017H65.8867V84.1927H41.4994V108.429H33.8575V54.5512H68.8225V62.1175Z" fill="#C5258F"/>
<path d="M115.625 108.429H107.29L101.809 93.6112H80.5089L75.0279 108.429H66.7686L87.4515 54.5575H94.8603L115.625 108.429ZM99.3396 86.8198L91.1559 65.1289L83.0541 86.8198H99.3396Z" fill="#C5258F"/>
<path d="M129.676 108.429H121.958V54.5575H129.676V108.429Z" fill="#C5258F"/>
<path d="M165.767 84.4195C167.002 85.3456 168.161 87.0466 169.012 88.4326L181.436 108.423H172.483L161.37 89.743C159.751 86.9647 158.434 85.1881 154.812 85.1881H149.022V108.423H141.305V54.5512H160.444C170.707 54.5512 178.349 59.1817 178.349 70.0681C178.349 77.5525 173.794 82.8823 165.767 84.4258V84.4195ZM160.444 62.0356H149.022V78.3967H160.444C166.158 78.3967 170.631 76.702 170.631 70.1374C170.631 63.5728 166 62.0356 160.444 62.0356Z" fill="#C5258F"/>
<path d="M226.038 53.5512C236.664 53.5513 243.204 55.4368 246.982 60.1284C250.705 64.7516 251.506 71.8414 251.506 81.4897C251.506 91.1381 250.705 98.2287 246.982 102.852C243.203 107.543 236.664 109.429 226.038 109.429H225.038V109.422H209.754V53.5512H226.038ZM219.471 99.7807H227.581C234.979 99.7807 238.369 98.5227 240.069 95.643L240.074 95.6332C240.722 94.508 241.141 93.0343 241.399 91.1098L241.5 90.2573C241.745 87.9046 241.783 85.0413 241.783 81.5659C241.783 78.5247 241.753 75.8924 241.576 73.6469L241.49 72.7075C241.236 70.27 240.777 68.4392 240.005 67.1205L239.998 67.1078L239.99 67.0961L239.825 66.8442C238.067 64.2851 234.653 63.1108 227.581 63.1108H219.471V99.7807Z" fill="black" stroke="white" stroke-width="2"/>
<path d="M281.292 53.5575L281.54 54.1981L302.305 108.069L302.829 109.429H292.339L292.098 108.775L287.101 95.2645L286.859 94.6112H266.952L266.71 95.2645L261.712 108.776L261.471 109.429H251.06L251.582 108.07L272.263 54.1991L272.509 53.5575H281.292ZM275.974 70.4696L270.746 84.4706L270.241 85.8202H283.64L283.129 84.4667L277.846 70.4657L276.906 67.9735L275.974 70.4696Z" fill="black" stroke="white" stroke-width="2"/>
<path d="M338.542 53.5575V63.1239H322.332V109.429H312.614V63.1239H296.404V53.5575H338.542Z" fill="black" stroke="white" stroke-width="2"/>
<path d="M362.422 53.5575L362.67 54.1981L383.435 108.069L383.959 109.429H373.469L373.228 108.775L368.231 95.2645L367.989 94.6112H348.082L347.84 95.2645L342.842 108.776L342.601 109.429H332.19L332.712 108.07L353.393 54.1991L353.639 53.5575H362.422ZM357.104 70.4696L351.876 84.4706L351.371 85.8202H364.77L364.259 84.4667L358.976 70.4657L358.036 67.9735L357.104 70.4696Z" fill="black" stroke="white" stroke-width="2"/>
<path d="M418.716 108.429H410.998V54.5575H418.716V108.429Z" fill="#C5258F"/>
<path d="M468.697 108.429H462.057L438.054 70.0681V108.429H430.336V54.5575H437.052L460.98 92.9182V54.5575H468.697V108.429Z" fill="#C5258F"/>
<path d="M517.897 108.429H511.257L487.254 70.0681V108.429H479.536V54.5575H486.252L510.18 92.9182V54.5575H517.897V108.429Z" fill="#C5258F"/>
<path d="M548.43 109.056C532.22 109.056 526.43 95.7002 526.43 81.5C526.43 67.2998 532.22 53.9438 548.43 53.9438C564.64 53.9438 570.43 67.2179 570.43 81.5C570.43 95.7821 564.564 109.056 548.43 109.056ZM548.43 61.5101C536.542 61.5101 534.148 72.239 534.148 81.5C534.148 90.761 536.542 101.49 548.43 101.49C560.318 101.49 562.63 90.761 562.63 81.5C562.63 72.239 560.312 61.5101 548.43 61.5101Z" fill="#C5258F"/>
<path d="M616.94 54.5512L598.726 108.423H591.16L572.947 54.5512H581.049L594.94 96.925L608.831 54.5512H616.933H616.94Z" fill="#C5258F"/>
<path d="M661.705 108.429H653.37L647.889 93.6112H626.589L621.108 108.429H612.849L633.532 54.5575H640.94L661.705 108.429ZM645.42 86.8198L637.236 65.1289L629.134 86.8198H645.42Z" fill="#C5258F"/>
<path d="M697.882 62.1238H681.672V108.429H673.954V62.1238H657.745V54.5575H697.882V62.1238Z" fill="#C5258F"/>
<path d="M713.512 108.429H705.794V54.5575H713.512V108.429Z" fill="#C5258F"/>
<path d="M744.83 109.056C728.62 109.056 722.83 95.7002 722.83 81.5C722.83 67.2998 728.62 53.9438 744.83 53.9438C761.04 53.9438 766.83 67.2179 766.83 81.5C766.83 95.7821 760.964 109.056 744.83 109.056ZM744.83 61.5101C732.942 61.5101 730.548 72.239 730.548 81.5C730.548 90.761 732.942 101.49 744.83 101.49C756.718 101.49 759.03 90.761 759.03 81.5C759.03 72.239 756.712 61.5101 744.83 61.5101Z" fill="#C5258F"/>
<path d="M813.687 108.429H807.047L783.044 70.0681V108.429H775.326V54.5575H782.042L805.97 92.9182V54.5575H813.687V108.429Z" fill="#C5258F"/>
<path d="M843.376 109.212C832.339 109.212 824.697 104.506 822.152 94.0855L829.485 92.6932C831.261 99.4846 836.894 101.879 843.376 101.879C848.782 101.879 855.264 99.0247 855.264 92.6932C855.264 79.5703 824.004 87.754 824.004 68.5327C824.004 58.6543 832.881 53.9482 841.833 53.9482C850.785 53.9482 857.117 57.2683 861.13 65.3701L854.49 68.3815C851.711 63.2092 847.849 61.2058 841.833 61.2058C837.587 61.2058 831.646 62.9824 831.646 68.539C831.646 79.8097 862.982 72.6277 862.982 92.6995C862.982 103.353 853.337 109.218 843.376 109.218V109.212Z" fill="#C5258F"/>
<path d="M902.172 53.5575V76.0175H924.868V53.5575H934.585V109.429H924.868V85.2684H902.172V109.429H892.455V53.5575H902.172Z" fill="black" stroke="white" stroke-width="2"/>
<path d="M952.44 53.5588V85.511C952.44 89.6858 952.909 93.4638 954.527 96.1789V96.1799C955.282 97.4456 956.336 98.5602 957.858 99.3488C959.37 100.132 961.283 100.563 963.713 100.563C966.15 100.563 968.074 100.139 969.599 99.3664C971.134 98.5886 972.208 97.4861 972.98 96.2268C974.63 93.5333 975.135 89.7592 975.135 85.511V53.5588H984.778V85.8947C984.778 92.8635 983.452 98.9132 980.102 103.237C976.714 107.608 971.388 110.047 963.788 110.047C956.183 110.047 950.841 107.566 947.437 103.178C944.069 98.8377 942.722 92.7898 942.722 85.8947V53.5588H952.44Z" fill="black" stroke="white" stroke-width="2"/>
<path d="M1013.12 53.5512C1018.29 53.5512 1023.05 54.5924 1026.54 57.1606C1030.08 59.7664 1032.18 63.8475 1032.18 69.602C1032.18 73.0745 1030.98 76.6202 1028.23 79.3432L1027.38 80.1801L1028.35 80.8696C1032.42 83.7551 1034.19 88.252 1034.19 92.7543C1034.19 98.7685 1032.02 103.007 1028.37 105.705C1024.98 108.195 1020.44 109.283 1015.44 109.409L1014.44 109.421H992.981V53.5512H1013.12ZM1002.7 100.083H1014.44C1017.27 100.083 1019.79 99.7855 1021.6 98.7495L1021.6 98.7485C1022.48 98.2431 1023.17 97.5645 1023.67 96.6459H1023.67L1023.67 96.6391C1024.17 95.7061 1024.47 94.4712 1024.47 92.8237C1024.47 91.2291 1024.19 89.9721 1023.67 88.975C1023.22 88.0923 1022.59 87.4652 1021.91 87.0024L1021.61 86.8139C1019.83 85.7453 1017.3 85.4135 1014.44 85.4135H1002.7V100.083ZM1002.7 76.6977H1013.43C1016.17 76.6977 1018.47 76.3449 1020.08 75.3276H1020.08C1020.79 74.8741 1021.45 74.2343 1021.91 73.2846C1022.37 72.3479 1022.62 71.1683 1022.62 69.6713C1022.62 68.144 1022.34 66.9961 1021.87 66.1264H1021.87C1021.42 65.2639 1020.75 64.6287 1019.95 64.1547L1019.94 64.1508L1019.61 63.976C1017.95 63.1386 1015.71 62.8784 1013.2 62.8784H1002.7V76.6977Z" fill="black" stroke="white" stroke-width="2"/>
</svg>
