<svg width="772" height="176" viewBox="0 0 772 176" fill="none" xmlns="http://www.w3.org/2000/svg">
<g clip-path="url(#clip0_2_1308)">
<path d="M52.8398 12.2709H22.1122V26.4896H49.4775V37.2413H22.1122V64.51H10.7618V0.973816H52.8398V12.2709Z" fill="#C5268F"/>
<path d="M109.475 64.5685H97.114L90.953 47.9929H68.6021L62.5965 64.5685H50.2355L74.5882 0.973816H84.8696L109.475 64.5685ZM87.3768 37.9619L79.8358 17.4714L72.392 37.9619H87.3768Z" fill="#C5268F"/>
<path d="M127.881 64.5685H116.433V0.973816H127.881V64.5685Z" fill="#C5268F"/>
<path d="M172.271 37.0854C173.511 38.2011 174.557 39.518 175.362 40.981L190.269 64.5685H176.994L164.089 42.9288C162.145 39.6565 161.096 38.1957 156.995 38.1957H152.447V64.5685H141V0.973816H163.914C176.178 0.973816 185.624 6.71973 185.624 19.9256C185.684 23.8829 184.393 27.7422 181.964 30.8633C179.536 33.9842 176.116 36.1797 172.271 37.0854ZM163.992 12.0371H152.447V28.1257H163.992C169.725 28.1257 174.176 26.587 174.176 19.9256C174.176 13.2642 169.55 11.9982 163.992 11.9982V12.0371Z" fill="#C5268F"/>
<path d="M223.659 64.5685V65.5424H224.631H242.55C254.94 65.5424 262.763 63.5075 267.404 58.1669C272.011 52.8678 273.239 44.5682 273.239 32.7809C273.239 20.994 272.015 12.6897 267.412 7.38568C262.775 2.03964 254.95 -6.10352e-05 242.55 -6.10352e-05H224.631H223.659V0.973823V64.5685ZM245.096 52.2975H237.069V13.2448H245.096C252.324 13.2448 255.873 14.2734 257.739 16.9518L257.965 17.3296C258.682 18.5256 259.168 20.1438 259.467 22.6301C259.764 25.117 259.867 28.3928 259.867 32.8588C259.867 37.3258 259.77 40.5092 259.485 42.9064C259.203 45.2877 258.744 46.8294 258.056 48.0461C256.215 51.0874 252.701 52.2975 245.096 52.2975Z" fill="#010101" stroke="white"/>
<path d="M333.509 65.5424H334.928L334.414 64.2171L309.867 0.622448L309.628 -6.10352e-05H308.962H298.7H298.031L297.792 0.624591L273.42 64.2192L272.913 65.5424H274.328H286.689H287.369L287.602 64.9008L293.374 48.9668H314.386L320.236 64.9046L320.469 65.5424H321.148H333.509ZM297.813 36.9881L303.875 20.3019L310.017 36.9881H297.813Z" fill="#010101" stroke="white"/>
<path d="M377.044 13.2448H378.016V12.2709V0.973823V-6.10352e-05H377.044H329.058H328.086V0.973823V12.2709V13.2448H329.058H346.356V64.5685V65.5424H347.328H358.775H359.747V64.5685V13.2448H377.044Z" fill="#010101" stroke="white"/>
<path d="M431.756 65.5424H433.174L432.661 64.2171L408.114 0.622448L407.875 -6.10352e-05H407.208H396.946H396.278L396.039 0.624785L371.686 64.2194L371.181 65.5424H372.594H384.955H385.637L385.868 64.9L391.623 48.9668H412.652L418.502 64.9046L418.736 65.5424H419.414H431.756ZM396.082 36.9881L402.159 20.2986L408.303 36.9881H396.082Z" fill="#010101" stroke="white"/>
<path d="M22.4815 173.858H11.0339V110.283H22.4815V173.858Z" fill="#C5268F"/>
<path d="M81.6628 173.858H72.2948L47.0286 134.065V173.858H35.5811V110.283H45.0462L70.3124 150.095V110.283H81.6822L81.6628 173.858Z" fill="#C5268F"/>
<path d="M140.553 173.858H131.185L106.016 134.065V173.858H94.5486V110.283H104.014L129.183 150.056V110.283H140.553V173.858Z" fill="#C5268F"/>
<path d="M176.994 174.598C157.908 174.598 150.717 159.016 150.717 142.07C150.717 125.125 157.908 109.562 176.994 109.562C196.08 109.562 203.271 125.144 203.271 142.07C203.271 158.996 196.08 174.598 176.994 174.598ZM176.994 120.859C164.536 120.859 162.184 132.156 162.184 142.07C162.184 151.984 164.536 163.301 176.994 163.301C189.452 163.301 191.726 152.004 191.726 142.07C191.726 132.137 189.53 120.84 176.994 120.84V120.859Z" fill="#C5268F"/>
<path d="M260.042 110.283L238.663 173.858H227.76L206.381 110.283H218.373L233.182 156.562L248.09 110.283H260.042Z" fill="#C5268F"/>
<path d="M313.957 173.858H301.615L295.512 157.282H273.161L267.156 173.858H254.795L279.147 110.283H289.429L313.957 173.858ZM291.878 147.271L284.337 126.78L276.873 147.271H291.878Z" fill="#C5268F"/>
<path d="M357.512 121.58H339.223V173.858H327.775V121.58H309.506V110.283H357.512V121.58Z" fill="#C5268F"/>
<path d="M378.308 173.858H366.938V110.283H378.386L378.308 173.858Z" fill="#C5268F"/>
<path d="M415.041 174.598C395.936 174.598 388.764 159.016 388.764 142.07C388.764 125.125 395.936 109.562 415.041 109.562C434.146 109.562 441.298 125.144 441.298 142.07C441.298 158.996 434.127 174.598 415.041 174.598ZM415.041 120.859C402.583 120.859 400.212 132.156 400.212 142.07C400.212 151.984 402.583 163.301 415.041 163.301C427.499 163.301 429.754 152.004 429.754 142.07C429.754 132.137 427.577 120.84 415.041 120.84V120.859Z" fill="#C5268F"/>
<path d="M497.467 173.858H488.099L462.93 134.065V173.858H451.483V110.283H460.928L486.195 150.095V110.283H497.545L497.467 173.858Z" fill="#C5268F"/>
<path d="M532.918 174.773C519.546 174.773 510.644 168.774 507.457 156.016L518.283 153.913C520.226 161.022 525.726 163.846 532.918 163.846C538.282 163.846 544.909 161.119 544.909 154.731C544.909 141.622 509.556 150.27 509.556 127.462C509.556 115.444 520.362 109.62 531.091 109.62C542.363 109.62 549.554 113.808 554.413 123.742L544.501 128.28C541.508 122.631 537.699 120.275 531.052 120.275C526.97 120.275 520.965 122.086 520.965 127.462C520.965 138.584 556.318 131.357 556.318 154.731C556.357 167.586 544.734 174.773 532.918 174.773Z" fill="#C5268F"/>
<path d="M641.154 174.832H642.126V173.858V110.283V109.309H641.154H629.707H628.735V110.283V134.824H605.509V110.283V109.309H604.538H593.071H592.099V110.283V173.858V174.832H593.071H604.538H605.509V173.858V147.563H628.735V173.858V174.832H629.707H641.154Z" fill="#010101" stroke="white"/>
<path d="M653.224 109.309H652.252V110.283V147.446C652.252 155.668 653.931 162.713 657.96 167.718C662.02 172.761 668.333 175.572 677.227 175.572C686.118 175.572 692.431 172.783 696.493 167.748C700.522 162.752 702.201 155.705 702.201 147.446V110.283V109.309H701.23H689.86H688.888V110.283V146.901C688.888 151.435 688.394 155.342 686.721 158.1C685.112 160.753 682.309 162.502 677.227 162.502C672.158 162.502 669.349 160.697 667.734 158.003C666.057 155.206 665.565 151.295 665.565 146.901V110.283V109.309H664.594H653.224Z" fill="#010101" stroke="white"/>
<path d="M712.269 173.858V174.832H713.241H737.691C744.114 174.832 749.964 173.544 754.246 170.354C758.574 167.132 761.163 162.07 761.227 154.849C761.336 151.817 760.629 148.809 759.179 146.145C757.937 143.86 756.188 141.899 754.075 140.407C755.474 139.04 756.615 137.426 757.439 135.642C758.444 133.462 758.947 131.083 758.914 128.682C758.912 121.769 756.39 116.863 752.194 113.717C748.042 110.605 742.373 109.309 736.214 109.309H713.241H712.269V110.283V173.858ZM725.641 135.643V122.106H736.33C739.032 122.106 741.374 122.386 743.024 123.345C743.827 123.811 744.464 124.437 744.909 125.29C745.36 126.15 745.64 127.292 745.64 128.825C745.64 131.851 744.581 133.446 743.051 134.361C741.415 135.339 739.075 135.643 736.33 135.643H725.641ZM725.66 162.054V147.699H737.691C740.581 147.699 743.098 147.986 744.876 149.01C745.741 149.511 746.431 150.183 746.913 151.106C747.399 152.035 747.7 153.27 747.7 154.925C747.7 156.581 747.399 157.81 746.917 158.729C746.439 159.639 745.753 160.299 744.89 160.786C743.115 161.791 740.598 162.054 737.691 162.054H725.66Z" fill="#010101" stroke="white"/>
</g>
<defs>
<clipPath id="clip0_2_1308">
<rect width="772" height="175.572" fill="white"/>
</clipPath>
</defs>
</svg>
