<?xml version="1.0" encoding="UTF-8"?>
<svg id="Calque_2" data-name="Calque 2" xmlns="http://www.w3.org/2000/svg" viewBox="0 0 230.78 263.24">
  <defs>
    <style>
      .cls-1 {
        stroke-width: 3.81px;
      }

      .cls-1, .cls-2 {
        fill: none;
        stroke: #000;
        stroke-miterlimit: 10;
      }

      .cls-2 {
        stroke-width: 4.44px;
      }
    </style>
  </defs>
  <g id="Calque_1-2" data-name="Calque 1">
    <g>
      <g>
        <polyline class="cls-2" points="168.49 208.46 168.49 237.27 142.56 261.02 90.56 261.02 63.39 237.27 63.39 208.46"/>
        <line class="cls-2" x1="57.3" y1="24.69" x2="17.58" y2="93.48"/>
        <line class="cls-2" x1="156.28" y1="14.19" x2="75.6" y2="14.19"/>
        <line class="cls-2" x1="214.16" y1="93.24" x2="174.58" y2="24.69"/>
        <line class="cls-2" x1="214.24" y1="117.15" x2="174.65" y2="185.71"/>
        <line class="cls-2" x1="156.28" y1="196.33" x2="75.6" y2="196.33"/>
        <line class="cls-2" x1="17.5" y1="116.91" x2="57.23" y2="185.71"/>
        <line class="cls-2" x1="63.39" y1="237.28" x2="168.49" y2="237.28"/>
        <line class="cls-2" x1="162.43" y1="24.71" x2="122.07" y2="94.63"/>
        <line class="cls-2" x1="204.46" y1="105.18" x2="128.15" y2="105.18"/>
        <line class="cls-2" x1="109.83" y1="94.62" x2="69.44" y2="24.71"/>
        <line class="cls-2" x1="162.43" y1="185.66" x2="122.04" y2="115.75"/>
        <line class="cls-2" x1="109.87" y1="115.77" x2="69.5" y2="185.68"/>
      </g>
      <g>
        <path d="M65.41,184.22c-.66-.11-1.33-.17-2.02-.17-2.25,0-4.35.6-6.16,1.66-2.41,1.41-4.29,3.62-5.28,6.27L8.67,117.01l.87-.5h0c1.41.57,2.94.88,4.55.88,1.18,0,2.32-.17,3.4-.48,2.61-.75,4.87-2.36,6.45-4.51l41.46,71.82Z"/>
        <path d="M65.41,26.15L23.95,97.96c-1.56-2.12-3.79-3.72-6.37-4.48-1.1-.32-2.27-.5-3.48-.5-2.25,0-4.37.61-6.18,1.68L51.95,18.39c1,2.67,2.91,4.9,5.35,6.3,1.79,1.04,3.87,1.63,6.09,1.63.69,0,1.36-.06,2.02-.17Z"/>
        <path d="M156.28,14.19c.02,2.92,1.07,5.6,2.8,7.69h-86.28c1.74-2.11,2.79-4.82,2.79-7.77s-1.05-5.66-2.79-7.77h86.28c-1.75,2.11-2.8,4.82-2.8,7.77v.08Z"/>
        <path d="M104.79,97.45v12.68s-.01,2.86-.01,2.86l-79.36-.03v-3.21c.57-1.41.89-2.95.89-4.57s-.31-3.15-.88-4.56v-3.2l79.36.03Z"/>
      </g>
      <circle class="cls-1" cx="168.49" cy="196.26" r="12.21"/>
      <circle class="cls-1" cx="216.67" cy="105.18" r="12.21"/>
      <g>
        <path class="cls-1" d="M75.59,14.11c0,2.95-1.05,5.66-2.79,7.77-.94,1.14-2.08,2.1-3.36,2.83-1.23.71-2.59,1.2-4.03,1.44-.66.11-1.33.17-2.02.17-2.22,0-4.3-.59-6.09-1.63-2.44-1.4-4.35-3.63-5.35-6.3-.5-1.33-.77-2.77-.77-4.28,0-6.74,5.47-12.21,12.21-12.21,3.79,0,7.17,1.73,9.41,4.44,1.74,2.11,2.79,4.82,2.79,7.77Z"/>
        <path class="cls-1" d="M75.59,196.26c0,6.74-5.46,12.2-12.2,12.2s-12.21-5.46-12.21-12.2c0-1.51.27-2.95.77-4.28.99-2.65,2.87-4.86,5.28-6.27,1.81-1.06,3.91-1.66,6.16-1.66.69,0,1.36.06,2.02.17,1.47.24,2.85.74,4.09,1.46,3.64,2.12,6.09,6.06,6.09,10.58Z"/>
        <path class="cls-1" d="M180.7,14.11c0,6.74-5.47,12.21-12.21,12.21-3.79,0-7.17-1.73-9.41-4.44-1.73-2.09-2.78-4.77-2.8-7.69v-.08c0-2.95,1.05-5.66,2.8-7.77,2.24-2.71,5.62-4.44,9.41-4.44,6.74,0,12.21,5.47,12.21,12.21Z"/>
        <path class="cls-1" d="M26.31,105.18c0,1.62-.32,3.16-.89,4.57-.38.95-.88,1.84-1.47,2.65-1.58,2.15-3.84,3.76-6.45,4.51-1.08.31-2.22.48-3.4.48-1.61,0-3.14-.31-4.55-.88h0c-4.48-1.81-7.64-6.2-7.64-11.33,0-4.49,2.42-8.4,6.02-10.52,1.81-1.07,3.93-1.68,6.18-1.68,1.21,0,2.38.18,3.48.5,2.58.76,4.81,2.36,6.37,4.48.59.81,1.09,1.71,1.48,2.66.57,1.41.88,2.95.88,4.56Z"/>
        <circle class="cls-1" cx="115.94" cy="105.18" r="12.21"/>
      </g>
    </g>
  </g>
</svg>