<svg width="1015" height="264" viewBox="0 0 1015 264" fill="none" xmlns="http://www.w3.org/2000/svg">
<g clip-path="url(#clip0_3_1725)">
<path d="M168.5 196.26V237.27L142.56 261.02H90.5596L63.3896 237.27V196.26" fill="white"/>
<path d="M168.5 196.26V237.27L142.56 261.02H90.5596L63.3896 237.27V196.26" stroke="black" stroke-width="4.44" stroke-miterlimit="10"/>
<path d="M168.53 14.1899H63.3598L10.7798 105.26L63.3598 196.33H168.53L221.11 105.26L168.53 14.1899Z" fill="white" stroke="black" stroke-width="4.44" stroke-miterlimit="10"/>
<path d="M63.3896 237.27H168.5" stroke="black" stroke-width="4.44" stroke-miterlimit="10"/>
<path d="M115.99 105.18L168.56 14.11" stroke="black" stroke-width="4.44" stroke-miterlimit="10"/>
<path d="M221.14 105.18H115.99" stroke="black" stroke-width="4.44" stroke-miterlimit="10"/>
<path d="M168.56 196.26L63.3599 14.1899" stroke="black" stroke-width="4.44" stroke-miterlimit="10"/>
<path d="M115.99 105.18L63.3896 196.26" stroke="black" stroke-width="4.44" stroke-miterlimit="10"/>
<path d="M168.56 14.11H63.3896L10.8096 105.18L63.3896 196.26" stroke="black" stroke-width="15.54" stroke-miterlimit="10"/>
<path d="M115.94 105.26L10.7998 105.18" stroke="black" stroke-width="15.54" stroke-miterlimit="10"/>
<path d="M168.5 208.47C175.243 208.47 180.71 203.003 180.71 196.26C180.71 189.517 175.243 184.05 168.5 184.05C161.757 184.05 156.29 189.517 156.29 196.26C156.29 203.003 161.757 208.47 168.5 208.47Z" fill="white" stroke="black" stroke-width="3.81" stroke-miterlimit="10"/>
<path d="M216.67 117.39C223.413 117.39 228.88 111.923 228.88 105.18C228.88 98.4366 223.413 92.97 216.67 92.97C209.927 92.97 204.46 98.4366 204.46 105.18C204.46 111.923 209.927 117.39 216.67 117.39Z" fill="white" stroke="black" stroke-width="3.81" stroke-miterlimit="10"/>
<path d="M63.3897 26.32C70.1331 26.32 75.5997 20.8534 75.5997 14.11C75.5997 7.36663 70.1331 1.90002 63.3897 1.90002C56.6463 1.90002 51.1797 7.36663 51.1797 14.11C51.1797 20.8534 56.6463 26.32 63.3897 26.32Z" fill="white" stroke="black" stroke-width="3.81" stroke-miterlimit="10"/>
<path d="M63.3897 208.47C70.1331 208.47 75.5997 203.003 75.5997 196.26C75.5997 189.517 70.1331 184.05 63.3897 184.05C56.6463 184.05 51.1797 189.517 51.1797 196.26C51.1797 203.003 56.6463 208.47 63.3897 208.47Z" fill="white" stroke="black" stroke-width="3.81" stroke-miterlimit="10"/>
<path d="M168.5 26.32C175.243 26.32 180.71 20.8534 180.71 14.11C180.71 7.36663 175.243 1.90002 168.5 1.90002C161.757 1.90002 156.29 7.36663 156.29 14.11C156.29 20.8534 161.757 26.32 168.5 26.32Z" fill="white" stroke="black" stroke-width="3.81" stroke-miterlimit="10"/>
<path d="M14.1099 117.39C20.8533 117.39 26.3199 111.923 26.3199 105.18C26.3199 98.4366 20.8533 92.97 14.1099 92.97C7.36651 92.97 1.8999 98.4366 1.8999 105.18C1.8999 111.923 7.36651 117.39 14.1099 117.39Z" fill="white" stroke="black" stroke-width="3.81" stroke-miterlimit="10"/>
<path d="M115.94 117.39C122.683 117.39 128.15 111.923 128.15 105.18C128.15 98.4366 122.683 92.97 115.94 92.97C109.197 92.97 103.73 98.4366 103.73 105.18C103.73 111.923 109.197 117.39 115.94 117.39Z" fill="white" stroke="black" stroke-width="3.81" stroke-miterlimit="10"/>
</g>
<g clip-path="url(#clip1_3_1725)">
<path d="M295.619 56.105H264.892V70.3238H292.257V81.0754H264.892V108.344H253.542V44.808H295.619V56.105Z" fill="#C5268F"/>
<path d="M352.255 108.403H339.894L333.733 91.8271H311.382L305.376 108.403H293.015L317.368 44.808H327.649L352.255 108.403ZM330.156 81.7961L322.615 61.3056L315.172 81.7961H330.156Z" fill="#C5268F"/>
<path d="M370.66 108.403H359.213V44.808H370.66V108.403Z" fill="#C5268F"/>
<path d="M415.051 80.9196C416.291 82.0353 417.337 83.3522 418.141 84.8152L433.048 108.403H419.774L406.869 86.7629C404.925 83.4907 403.876 82.0298 399.775 82.0298H395.227V108.403H383.779V44.808H406.694C418.958 44.808 428.403 50.5539 428.403 63.7598C428.464 67.7171 427.173 71.5764 424.744 74.6975C422.316 77.8184 418.895 80.0139 415.051 80.9196ZM406.772 55.8713H395.227V71.9599H406.772C412.505 71.9599 416.956 70.4211 416.956 63.7598C416.956 57.0984 412.33 55.8324 406.772 55.8324V55.8713Z" fill="#C5268F"/>
<path d="M466.438 108.403V109.377H467.41H485.33C497.72 109.377 505.543 107.342 510.184 102.001C514.79 96.702 516.019 88.4024 516.019 76.6151C516.019 64.8281 514.794 56.5238 510.192 51.2199C505.555 45.8738 497.73 43.8341 485.33 43.8341H467.41H466.438V44.808V108.403ZM487.876 96.1317H479.849V57.0789H487.876C495.104 57.0789 498.653 58.1076 500.519 60.7859L500.744 61.1638C501.461 62.3597 501.947 63.9779 502.247 66.4643C502.544 68.9512 502.647 72.2269 502.647 76.693C502.647 81.16 502.55 84.3434 502.264 86.7405C501.982 89.1219 501.524 90.6635 500.836 91.8803C498.995 94.9215 495.481 96.1317 487.876 96.1317Z" fill="#010101" stroke="white"/>
<path d="M576.289 109.377H577.707L577.194 108.051L552.647 44.4566L552.408 43.8341H551.742H541.48H540.811L540.572 44.4588L516.2 108.053L515.692 109.377H517.107H529.468H530.149L530.382 108.735L536.154 92.801H557.166L563.016 108.739L563.249 109.377H563.928H576.289ZM540.593 80.8222L546.655 64.1361L552.797 80.8222H540.593Z" fill="#010101" stroke="white"/>
<path d="M619.824 57.0789H620.796V56.105V44.808V43.8341H619.824H571.838H570.866V44.808V56.105V57.0789H571.838H589.136V108.403V109.377H590.107H601.555H602.527V108.403V57.0789H619.824Z" fill="#010101" stroke="white"/>
<path d="M674.535 109.377H675.954L675.441 108.051L650.894 44.4566L650.655 43.8341H649.988H639.726H639.058L638.818 44.459L614.466 108.054L613.96 109.377H615.373H627.734H628.417L628.648 108.734L634.403 92.801H655.432L661.282 108.739L661.515 109.377H662.194H674.535ZM638.861 80.8222L644.939 64.1328L651.082 80.8222H638.861Z" fill="#010101" stroke="white"/>
<path d="M265.261 217.692H253.813V154.117H265.261V217.692Z" fill="#C5268F"/>
<path d="M324.443 217.692H315.075L289.808 177.899V217.692H278.361V154.117H287.826L313.092 193.929V154.117H324.462L324.443 217.692Z" fill="#C5268F"/>
<path d="M383.332 217.692H373.964L348.795 177.899V217.692H337.328V154.117H346.793L371.962 193.89V154.117H383.332V217.692Z" fill="#C5268F"/>
<path d="M419.774 218.432C400.688 218.432 393.497 202.85 393.497 185.904C393.497 168.959 400.688 153.396 419.774 153.396C438.86 153.396 446.051 168.978 446.051 185.904C446.051 202.83 438.86 218.432 419.774 218.432ZM419.774 164.693C407.316 164.693 404.964 175.99 404.964 185.904C404.964 195.818 407.316 207.135 419.774 207.135C432.232 207.135 434.506 195.838 434.506 185.904C434.506 175.971 432.31 164.674 419.774 164.674V164.693Z" fill="#C5268F"/>
<path d="M502.822 154.117L481.443 217.692H470.54L449.161 154.117H461.152L475.962 200.396L490.869 154.117H502.822Z" fill="#C5268F"/>
<path d="M556.736 217.692H544.395L538.292 201.116H515.941L509.935 217.692H497.574L521.927 154.117H532.208L556.736 217.692ZM534.657 191.105L527.116 170.614L519.653 191.105H534.657Z" fill="#C5268F"/>
<path d="M600.291 165.414H582.003V217.692H570.555V165.414H552.286V154.117H600.291V165.414Z" fill="#C5268F"/>
<path d="M621.088 217.692H609.718V154.117H621.165L621.088 217.692Z" fill="#C5268F"/>
<path d="M657.821 218.432C638.716 218.432 631.544 202.85 631.544 185.904C631.544 168.959 638.716 153.396 657.821 153.396C676.926 153.396 684.078 168.978 684.078 185.904C684.078 202.83 676.907 218.432 657.821 218.432ZM657.821 164.693C645.363 164.693 642.991 175.99 642.991 185.904C642.991 195.818 645.363 207.135 657.821 207.135C670.279 207.135 672.534 195.838 672.534 185.904C672.534 175.971 670.357 164.674 657.821 164.674V164.693Z" fill="#C5268F"/>
<path d="M740.247 217.692H730.879L705.71 177.899V217.692H694.262V154.117H703.708L728.974 193.929V154.117H740.325L740.247 217.692Z" fill="#C5268F"/>
<path d="M775.697 218.607C762.326 218.607 753.424 212.608 750.237 199.85L761.062 197.747C763.006 204.856 768.506 207.68 775.697 207.68C781.062 207.68 787.689 204.953 787.689 198.565C787.689 185.456 752.336 194.104 752.336 171.296C752.336 159.278 763.142 153.454 773.87 153.454C785.143 153.454 792.334 157.642 797.193 167.576L787.281 172.114C784.288 166.466 780.479 164.109 773.832 164.109C769.75 164.109 763.745 165.92 763.745 171.296C763.745 182.418 799.098 175.192 799.098 198.565C799.137 211.42 787.514 218.607 775.697 218.607Z" fill="#C5268F"/>
<path d="M883.934 218.666H884.906V217.692V154.117V153.143H883.934H872.486H871.514V154.117V178.659H848.289V154.117V153.143H847.317H835.85H834.878V154.117V217.692V218.666H835.85H847.317H848.289V217.692V191.397H871.514V217.692V218.666H872.486H883.934Z" fill="#010101" stroke="white"/>
<path d="M896.004 153.143H895.032V154.117V191.28C895.032 199.502 896.711 206.547 900.74 211.553C904.8 216.595 911.113 219.406 920.006 219.406C928.898 219.406 935.211 216.617 939.273 211.582C943.302 206.586 944.981 199.539 944.981 191.28V154.117V153.143H944.009H932.64H931.668V154.117V190.735C931.668 195.269 931.174 199.176 929.501 201.934C927.891 204.587 925.089 206.336 920.006 206.336C914.938 206.336 912.129 204.531 910.514 201.837C908.837 199.04 908.345 195.129 908.345 190.735V154.117V153.143H907.373H896.004Z" fill="#010101" stroke="white"/>
<path d="M955.049 217.692V218.666H956.021H980.471C986.894 218.666 992.744 217.378 997.026 214.188C1001.35 210.966 1003.94 205.904 1004.01 198.684C1004.12 195.651 1003.41 192.644 1001.96 189.979C1000.72 187.694 998.967 185.733 996.855 184.241C998.254 182.874 999.395 181.26 1000.22 179.476C1001.22 177.296 1001.73 174.918 1001.69 172.516C1001.69 165.603 999.169 160.697 994.973 157.551C990.822 154.439 985.153 153.143 978.993 153.143H956.021H955.049V154.117V217.692ZM968.421 179.477V165.94H979.11C981.812 165.94 984.154 166.22 985.804 167.179C986.606 167.645 987.244 168.271 987.689 169.124C988.14 169.984 988.42 171.127 988.42 172.659C988.42 175.685 987.36 177.28 985.831 178.195C984.194 179.173 981.854 179.477 979.11 179.477H968.421ZM968.44 205.888V191.533H980.471C983.361 191.533 985.878 191.82 987.656 192.844C988.521 193.345 989.211 194.017 989.693 194.94C990.179 195.869 990.48 197.104 990.48 198.76C990.48 200.415 990.179 201.644 989.697 202.564C989.218 203.473 988.532 204.133 987.669 204.62C985.895 205.625 983.378 205.888 980.471 205.888H968.44Z" fill="#010101" stroke="white"/>
</g>
<defs>
<clipPath id="clip0_3_1725">
<rect width="230.78" height="263.24" fill="white"/>
</clipPath>
<clipPath id="clip1_3_1725">
<rect width="772" height="175.572" fill="white" transform="translate(242.78 43.8341)"/>
</clipPath>
</defs>
</svg>
