<svg width="1015" height="264" viewBox="0 0 1015 264" fill="none" xmlns="http://www.w3.org/2000/svg">
<g clip-path="url(#clip0_2_1303)">
<path d="M168.6 196.36V237.37L142.66 261.12H90.66L63.49 237.37V196.36" stroke="white" stroke-width="4.44" stroke-miterlimit="10"/>
<path d="M168.63 14.2899H63.46L10.88 105.36L63.46 196.43H168.63L221.21 105.36L168.63 14.2899Z" stroke="white" stroke-width="4.44" stroke-miterlimit="10"/>
<path d="M63.49 237.37H168.6" stroke="white" stroke-width="4.44" stroke-miterlimit="10"/>
<path d="M116.09 105.28L168.66 14.21" stroke="white" stroke-width="4.44" stroke-miterlimit="10"/>
<path d="M221.24 105.28H116.09" stroke="white" stroke-width="4.44" stroke-miterlimit="10"/>
<path d="M168.66 196.36L63.46 14.2899" stroke="white" stroke-width="4.44" stroke-miterlimit="10"/>
<path d="M116.09 105.28L63.49 196.36" stroke="white" stroke-width="4.44" stroke-miterlimit="10"/>
<path d="M168.66 14.21H63.49L10.91 105.28L63.49 196.36" stroke="white" stroke-width="15.54" stroke-miterlimit="10"/>
<path d="M116.04 105.36L10.9 105.28" stroke="white" stroke-width="15.54" stroke-miterlimit="10"/>
<path d="M63.49 26.42C70.2334 26.42 75.7 20.9534 75.7 14.21C75.7 7.4666 70.2334 2 63.49 2C56.7466 2 51.28 7.4666 51.28 14.21C51.28 20.9534 56.7466 26.42 63.49 26.42Z" fill="black" stroke="white" stroke-width="3.81" stroke-miterlimit="10"/>
<path d="M63.49 208.57C70.2334 208.57 75.7 203.103 75.7 196.36C75.7 189.616 70.2334 184.15 63.49 184.15C56.7466 184.15 51.28 189.616 51.28 196.36C51.28 203.103 56.7466 208.57 63.49 208.57Z" fill="black" stroke="white" stroke-width="3.81" stroke-miterlimit="10"/>
<path d="M168.6 208.57C175.343 208.57 180.81 203.103 180.81 196.36C180.81 189.616 175.343 184.15 168.6 184.15C161.857 184.15 156.39 189.616 156.39 196.36C156.39 203.103 161.857 208.57 168.6 208.57Z" fill="black" stroke="white" stroke-width="3.81" stroke-miterlimit="10"/>
<path d="M168.6 26.42C175.343 26.42 180.81 20.9534 180.81 14.21C180.81 7.4666 175.343 2 168.6 2C161.857 2 156.39 7.4666 156.39 14.21C156.39 20.9534 161.857 26.42 168.6 26.42Z" fill="black" stroke="white" stroke-width="3.81" stroke-miterlimit="10"/>
<path d="M216.77 117.49C223.513 117.49 228.98 112.023 228.98 105.28C228.98 98.5365 223.513 93.0699 216.77 93.0699C210.027 93.0699 204.56 98.5365 204.56 105.28C204.56 112.023 210.027 117.49 216.77 117.49Z" fill="black" stroke="white" stroke-width="3.81" stroke-miterlimit="10"/>
<path d="M14.21 117.49C20.9534 117.49 26.42 112.023 26.42 105.28C26.42 98.5365 20.9534 93.0699 14.21 93.0699C7.4666 93.0699 2 98.5365 2 105.28C2 112.023 7.4666 117.49 14.21 117.49Z" fill="black" stroke="white" stroke-width="3.81" stroke-miterlimit="10"/>
<path d="M116.04 117.49C122.783 117.49 128.25 112.023 128.25 105.28C128.25 98.5365 122.783 93.0699 116.04 93.0699C109.297 93.0699 103.83 98.5365 103.83 105.28C103.83 112.023 109.297 117.49 116.04 117.49Z" fill="black" stroke="white" stroke-width="3.81" stroke-miterlimit="10"/>
</g>
<g clip-path="url(#clip1_2_1303)">
<path d="M295.82 56.045H265.092V70.2637H292.457V81.0154H265.092V108.284H253.742V44.7479H295.82V56.045Z" fill="#C5268F"/>
<path d="M352.455 108.343H340.094L333.933 91.7671H311.582L305.576 108.343H293.215L317.568 44.7479H327.85L352.455 108.343ZM330.357 81.7361L322.816 61.2455L315.372 81.7361H330.357Z" fill="#C5268F"/>
<path d="M370.861 108.343H359.413V44.7479H370.861V108.343Z" fill="#C5268F"/>
<path d="M415.251 80.8596C416.491 81.9752 417.537 83.2921 418.342 84.7551L433.249 108.343H419.974L407.069 86.7029C405.125 83.4306 404.076 81.9698 399.975 81.9698H395.427V108.343H383.979V44.7479H406.894C419.158 44.7479 428.604 50.4938 428.604 63.6997C428.664 67.657 427.373 71.5163 424.944 74.6374C422.516 77.7583 419.096 79.9538 415.251 80.8596ZM406.972 55.8113H395.427V71.8998H406.972C412.705 71.8998 417.156 70.3611 417.156 63.6997C417.156 57.0383 412.53 55.7723 406.972 55.7723V55.8113Z" fill="#C5268F"/>
<path d="M466.639 108.343V109.316H467.611H485.53C497.92 109.316 505.743 107.282 510.384 101.941C514.991 96.6419 516.219 88.3423 516.219 76.555C516.219 64.7681 514.995 56.4638 510.392 51.1598C505.755 45.8138 497.93 43.774 485.53 43.774H467.611H466.639V44.7479V108.343ZM488.076 96.0716H480.049V57.0189H488.076C495.304 57.0189 498.853 58.0475 500.719 60.7259L500.945 61.1037C501.662 62.2997 502.148 63.9179 502.447 66.4042C502.744 68.8911 502.847 72.1669 502.847 76.6329C502.847 81.0999 502.75 84.2833 502.464 86.6805C502.183 89.0618 501.724 90.6035 501.036 91.8202C499.195 94.8615 495.681 96.0716 488.076 96.0716Z" fill="#010101" stroke="white"/>
<path d="M576.489 109.316H577.908L577.394 107.991L552.847 44.3966L552.608 43.774H551.942H541.68H541.011L540.772 44.3987L516.4 107.993L515.893 109.316H517.308H529.668H530.349L530.582 108.675L536.354 92.7409H557.366L563.216 108.679L563.449 109.316H564.128H576.489ZM540.793 80.7622L546.855 64.076L552.997 80.7622H540.793Z" fill="#010101" stroke="white"/>
<path d="M620.024 57.0189H620.996V56.045V44.7479V43.774H620.024H572.038H571.066V44.7479V56.045V57.0189H572.038H589.336V108.343V109.316H590.307H601.755H602.727V108.343V57.0189H620.024Z" fill="#010101" stroke="white"/>
<path d="M674.736 109.316H676.154L675.641 107.991L651.094 44.3966L650.855 43.774H650.188H639.926H639.258L639.019 44.3989L614.666 107.994L614.161 109.316H615.574H627.935H628.617L628.848 108.674L634.603 92.7409H655.632L661.482 108.679L661.716 109.316H662.394H674.736ZM639.062 80.7622L645.139 64.0727L651.283 80.7622H639.062Z" fill="#010101" stroke="white"/>
<path d="M265.461 217.632H254.014V154.057H265.461V217.632Z" fill="#C5268F"/>
<path d="M324.643 217.632H315.275L290.009 177.839V217.632H278.561V154.057H288.026L313.292 193.869V154.057H324.662L324.643 217.632Z" fill="#C5268F"/>
<path d="M383.533 217.632H374.165L348.996 177.839V217.632H337.529V154.057H346.994L372.163 193.83V154.057H383.533V217.632Z" fill="#C5268F"/>
<path d="M419.974 218.372C400.888 218.372 393.697 202.79 393.697 185.844C393.697 168.899 400.888 153.336 419.974 153.336C439.06 153.336 446.251 168.918 446.251 185.844C446.251 202.77 439.06 218.372 419.974 218.372ZM419.974 164.633C407.516 164.633 405.164 175.93 405.164 185.844C405.164 195.758 407.516 207.075 419.974 207.075C432.432 207.075 434.706 195.778 434.706 185.844C434.706 175.911 432.51 164.614 419.974 164.614V164.633Z" fill="#C5268F"/>
<path d="M503.022 154.057L481.643 217.632H470.74L449.361 154.057H461.353L476.162 200.336L491.07 154.057H503.022Z" fill="#C5268F"/>
<path d="M556.936 217.632H544.595L538.492 201.056H516.141L510.136 217.632H497.775L522.127 154.057H532.409L556.936 217.632ZM534.858 191.045L527.317 170.554L519.853 191.045H534.858Z" fill="#C5268F"/>
<path d="M600.492 165.354H582.203V217.632H570.755V165.354H552.486V154.057H600.492V165.354Z" fill="#C5268F"/>
<path d="M621.288 217.632H609.918V154.057H621.366L621.288 217.632Z" fill="#C5268F"/>
<path d="M658.021 218.372C638.916 218.372 631.744 202.79 631.744 185.844C631.744 168.899 638.916 153.336 658.021 153.336C677.126 153.336 684.278 168.918 684.278 185.844C684.278 202.77 677.107 218.372 658.021 218.372ZM658.021 164.633C645.563 164.633 643.192 175.93 643.192 185.844C643.192 195.758 645.563 207.075 658.021 207.075C670.479 207.075 672.734 195.778 672.734 185.844C672.734 175.911 670.557 164.614 658.021 164.614V164.633Z" fill="#C5268F"/>
<path d="M740.447 217.632H731.079L705.91 177.839V217.632H694.463V154.057H703.908L729.175 193.869V154.057H740.525L740.447 217.632Z" fill="#C5268F"/>
<path d="M775.898 218.547C762.526 218.547 753.624 212.548 750.437 199.79L761.263 197.687C763.206 204.796 768.706 207.62 775.898 207.62C781.262 207.62 787.889 204.893 787.889 198.505C787.889 185.396 752.536 194.044 752.536 171.236C752.536 159.218 763.342 153.394 774.071 153.394C785.343 153.394 792.534 157.582 797.393 167.516L787.481 172.054C784.488 166.406 780.679 164.049 774.032 164.049C769.95 164.049 763.945 165.86 763.945 171.236C763.945 182.358 799.298 175.132 799.298 198.505C799.337 211.36 787.714 218.547 775.898 218.547Z" fill="#C5268F"/>
<path d="M884.134 218.606H885.106V217.632V154.057V153.083H884.134H872.687H871.715V154.057V178.599H848.489V154.057V153.083H847.518H836.051H835.079V154.057V217.632V218.606H836.051H847.518H848.489V217.632V191.337H871.715V217.632V218.606H872.687H884.134Z" fill="#010101" stroke="white"/>
<path d="M896.204 153.083H895.232V154.057V191.22C895.232 199.442 896.911 206.487 900.94 211.492C905 216.535 911.313 219.346 920.207 219.346C929.098 219.346 935.411 216.557 939.473 211.522C943.502 206.526 945.181 199.479 945.181 191.22V154.057V153.083H944.21H932.84H931.868V154.057V190.675C931.868 195.209 931.374 199.116 929.701 201.874C928.092 204.527 925.289 206.276 920.207 206.276C915.138 206.276 912.329 204.471 910.714 201.777C909.037 198.98 908.545 195.069 908.545 190.675V154.057V153.083H907.574H896.204Z" fill="#010101" stroke="white"/>
<path d="M955.249 217.632V218.606H956.221H980.671C987.094 218.606 992.944 217.318 997.226 214.128C1001.55 210.906 1004.14 205.844 1004.21 198.624C1004.32 195.591 1003.61 192.583 1002.16 189.919C1000.92 187.634 999.168 185.673 997.055 184.181C998.454 182.814 999.595 181.2 1000.42 179.416C1001.42 177.236 1001.93 174.857 1001.89 172.456C1001.89 165.543 999.37 160.637 995.174 157.491C991.022 154.379 985.353 153.083 979.194 153.083H956.221H955.249V154.057V217.632ZM968.621 179.417V165.88H979.31C982.012 165.88 984.354 166.16 986.004 167.119C986.807 167.585 987.444 168.211 987.889 169.064C988.34 169.924 988.62 171.067 988.62 172.599C988.62 175.625 987.561 177.22 986.031 178.135C984.395 179.113 982.055 179.417 979.31 179.417H968.621ZM968.64 205.828V191.473H980.671C983.561 191.473 986.078 191.76 987.856 192.784C988.721 193.285 989.411 193.957 989.893 194.88C990.379 195.809 990.68 197.044 990.68 198.7C990.68 200.355 990.379 201.584 989.897 202.503C989.419 203.413 988.733 204.073 987.87 204.56C986.095 205.565 983.578 205.828 980.671 205.828H968.64Z" fill="#010101" stroke="white"/>
</g>
<defs>
<clipPath id="clip0_2_1303">
<rect width="230.98" height="263.12" fill="white"/>
</clipPath>
<clipPath id="clip1_2_1303">
<rect width="772" height="175.572" fill="white" transform="translate(242.98 43.774)"/>
</clipPath>
</defs>
</svg>
