<svg width="1015" height="264" viewBox="0 0 1015 264" fill="none" xmlns="http://www.w3.org/2000/svg">
<g clip-path="url(#clip0_2_1306)">
<mask id="mask0_2_1306" style="mask-type:luminance" maskUnits="userSpaceOnUse" x="0" y="0" width="231" height="264">
<path d="M230.78 0H0V263.24H230.78V0Z" fill="white"/>
</mask>
<g mask="url(#mask0_2_1306)">
<path d="M63.4 196.26V196.33V208.46V237.27L90.57 261.02H142.56L168.5 237.27V208.46" stroke="white" stroke-width="4.44" stroke-miterlimit="10"/>
<path d="M214.25 117.15L174.66 185.71" stroke="white" stroke-width="4.44" stroke-miterlimit="10"/>
<path d="M162.44 185.66L122.05 115.75C125.7 113.65 128.15 109.7 128.15 105.18H204.47" stroke="white" stroke-width="4.44" stroke-miterlimit="10"/>
<path d="M156.29 196.33H75.6H63.4H63.37L57.24 185.71L17.5 116.91V116.9L10.78 105.26L10.82 105.19L10.83 105.18L17.58 93.48L57.31 24.69L63.37 14.19H75.6H156.29H168.51H168.53L174.59 24.69L214.17 93.24" stroke="white" stroke-width="4.44" stroke-miterlimit="10"/>
<path d="M162.44 185.66L122.05 115.75C125.7 113.65 128.15 109.7 128.15 105.18H204.47" stroke="white" stroke-width="4.44" stroke-miterlimit="10"/>
<path d="M63.39 237.27H168.5" stroke="white" stroke-width="4.44" stroke-miterlimit="10"/>
<path d="M115.99 105.18L168.56 14.11" stroke="white" stroke-width="4.44" stroke-miterlimit="10"/>
<path d="M128.15 105.18H115.99" stroke="white" stroke-width="4.44" stroke-miterlimit="10"/>
<path d="M63.37 14.19L69.45 24.71L109.84 94.62L115.96 105.22L122.05 115.75" stroke="white" stroke-width="4.44" stroke-miterlimit="10"/>
<path d="M115.99 105.18L63.39 196.26" stroke="white" stroke-width="4.44" stroke-miterlimit="10"/>
<path d="M168.56 14.11H63.39L10.81 105.18L63.39 196.26" stroke="#D042A7" stroke-width="15.54" stroke-miterlimit="10"/>
<path d="M115.94 105.26L10.8 105.18" stroke="#D042A7" stroke-width="15.54" stroke-miterlimit="10"/>
<path d="M63.39 26.32C70.1334 26.32 75.6 20.8534 75.6 14.11C75.6 7.36657 70.1334 1.89996 63.39 1.89996C56.6466 1.89996 51.18 7.36657 51.18 14.11C51.18 20.8534 56.6466 26.32 63.39 26.32Z" fill="#D042A7" stroke="white" stroke-width="3.81" stroke-miterlimit="10"/>
<path d="M63.39 208.47C70.1334 208.47 75.6 203.003 75.6 196.26C75.6 189.517 70.1334 184.05 63.39 184.05C56.6466 184.05 51.18 189.517 51.18 196.26C51.18 203.003 56.6466 208.47 63.39 208.47Z" fill="#D042A7" stroke="white" stroke-width="3.81" stroke-miterlimit="10"/>
<path d="M180.71 196.26C180.71 203 175.24 208.46 168.5 208.46C161.76 208.46 156.33 203.04 156.29 196.33V196.26C156.29 191.72 158.77 187.76 162.44 185.66C164.23 184.63 166.29 184.05 168.5 184.05C170.71 184.05 172.85 184.65 174.66 185.71C178.28 187.83 180.71 191.76 180.71 196.26Z" stroke="white" stroke-width="3.81" stroke-miterlimit="10"/>
<path d="M168.5 26.32C175.243 26.32 180.71 20.8534 180.71 14.11C180.71 7.36657 175.243 1.89996 168.5 1.89996C161.757 1.89996 156.29 7.36657 156.29 14.11C156.29 20.8534 161.757 26.32 168.5 26.32Z" fill="#D042A7" stroke="white" stroke-width="3.81" stroke-miterlimit="10"/>
<path d="M228.88 105.18C228.88 111.92 223.42 117.39 216.67 117.39C215.84 117.39 215.03 117.31 214.25 117.15C208.67 116.03 204.47 111.09 204.47 105.18C204.47 99.27 208.63 94.39 214.17 93.24C214.98 93.07 215.81 92.98 216.67 92.98C223.42 92.98 228.88 98.44 228.88 105.18Z" stroke="white" stroke-width="3.81" stroke-miterlimit="10"/>
<path d="M14.11 117.39C20.8534 117.39 26.32 111.923 26.32 105.18C26.32 98.4366 20.8534 92.97 14.11 92.97C7.36657 92.97 1.89996 98.4366 1.89996 105.18C1.89996 111.923 7.36657 117.39 14.11 117.39Z" fill="#D042A7" stroke="white" stroke-width="3.81" stroke-miterlimit="10"/>
<path d="M128.15 105.18C128.15 109.7 125.7 113.65 122.05 115.75C120.25 116.79 118.17 117.39 115.95 117.39C113.73 117.39 111.67 116.8 109.88 115.77C106.23 113.68 103.77 109.75 103.74 105.25V105.18C103.74 100.67 106.19 96.73 109.84 94.62C111.64 93.58 113.72 92.98 115.95 92.98C118.18 92.98 120.28 93.58 122.08 94.63C125.71 96.74 128.15 100.67 128.15 105.18Z" fill="#D042A7" stroke="white" stroke-width="3.81" stroke-miterlimit="10"/>
</g>
</g>
<g clip-path="url(#clip1_2_1306)">
<path d="M295.84 56.485H265.112V70.7037H292.477V81.4554H265.112V108.724H253.762V45.1879H295.84V56.485Z" fill="#C5268F"/>
<path d="M352.475 108.783H340.114L333.953 92.2071H311.602L305.596 108.783H293.235L317.588 45.1879H327.87L352.475 108.783ZM330.377 82.1761L322.836 61.6855L315.392 82.1761H330.377Z" fill="#C5268F"/>
<path d="M370.881 108.783H359.433V45.1879H370.881V108.783Z" fill="#C5268F"/>
<path d="M415.271 81.2996C416.511 82.4152 417.557 83.7321 418.362 85.1951L433.269 108.783H419.994L407.089 87.1429C405.145 83.8706 404.096 82.4098 399.995 82.4098H395.447V108.783H384V45.1879H406.914C419.178 45.1879 428.624 50.9338 428.624 64.1397C428.684 68.097 427.393 71.9563 424.964 75.0774C422.536 78.1983 419.116 80.3938 415.271 81.2996ZM406.992 56.2513H395.447V72.3398H406.992C412.725 72.3398 417.176 70.8011 417.176 64.1397C417.176 57.4783 412.55 56.2123 406.992 56.2123V56.2513Z" fill="#C5268F"/>
<path d="M466.659 108.783V109.756H467.631H485.55C497.94 109.756 505.763 107.722 510.404 102.381C515.011 97.0819 516.239 88.7823 516.239 76.995C516.239 65.2081 515.015 56.9038 510.412 51.5998C505.775 46.2538 497.95 44.2141 485.55 44.2141H467.631H466.659V45.1879V108.783ZM488.096 96.5116H480.069V57.4589H488.096C495.324 57.4589 498.873 58.4875 500.739 61.1659L500.965 61.5437C501.682 62.7397 502.168 64.3579 502.467 66.8442C502.764 69.3311 502.867 72.6069 502.867 77.0729C502.867 81.5399 502.77 84.7233 502.485 87.1205C502.203 89.5018 501.744 91.0435 501.056 92.2602C499.215 95.3015 495.701 96.5116 488.096 96.5116Z" fill="#010101" stroke="white"/>
<path d="M576.509 109.756H577.928L577.414 108.431L552.867 44.8366L552.628 44.2141H551.962H541.7H541.031L540.792 44.8387L516.42 108.433L515.913 109.756H517.328H529.689H530.369L530.602 109.115L536.374 93.1809H557.386L563.236 109.119L563.469 109.756H564.148H576.509ZM540.813 81.2022L546.875 64.516L553.017 81.2022H540.813Z" fill="#010101" stroke="white"/>
<path d="M620.044 57.4589H621.016V56.485V45.1879V44.2141H620.044H572.058H571.086V45.1879V56.485V57.4589H572.058H589.356V108.783V109.756H590.328H601.775H602.747V108.783V57.4589H620.044Z" fill="#010101" stroke="white"/>
<path d="M674.756 109.756H676.174L675.661 108.431L651.114 44.8366L650.875 44.2141H650.208H639.946H639.278L639.039 44.8389L614.686 108.434L614.181 109.756H615.594H627.955H628.637L628.868 109.114L634.623 93.1809H655.652L661.502 109.119L661.736 109.756H662.414H674.756ZM639.082 81.2022L645.159 64.5127L651.303 81.2022H639.082Z" fill="#010101" stroke="white"/>
<path d="M265.481 218.072H254.034V154.497H265.481V218.072Z" fill="#C5268F"/>
<path d="M324.663 218.072H315.295L290.029 178.279V218.072H278.581V154.497H288.046L313.312 194.309V154.497H324.682L324.663 218.072Z" fill="#C5268F"/>
<path d="M383.553 218.072H374.185L349.016 178.279V218.072H337.549V154.497H347.014L372.183 194.27V154.497H383.553V218.072Z" fill="#C5268F"/>
<path d="M419.994 218.812C400.908 218.812 393.717 203.23 393.717 186.284C393.717 169.339 400.908 153.776 419.994 153.776C439.08 153.776 446.271 169.358 446.271 186.284C446.271 203.21 439.08 218.812 419.994 218.812ZM419.994 165.073C407.536 165.073 405.184 176.37 405.184 186.284C405.184 196.198 407.536 207.515 419.994 207.515C432.452 207.515 434.726 196.218 434.726 186.284C434.726 176.351 432.53 165.054 419.994 165.054V165.073Z" fill="#C5268F"/>
<path d="M503.042 154.497L481.663 218.072H470.76L449.381 154.497H461.373L476.182 200.776L491.09 154.497H503.042Z" fill="#C5268F"/>
<path d="M556.957 218.072H544.615L538.512 201.496H516.161L510.156 218.072H497.795L522.147 154.497H532.429L556.957 218.072ZM534.878 191.485L527.337 170.994L519.873 191.485H534.878Z" fill="#C5268F"/>
<path d="M600.512 165.794H582.223V218.072H570.775V165.794H552.506V154.497H600.512V165.794Z" fill="#C5268F"/>
<path d="M621.308 218.072H609.938V154.497H621.386L621.308 218.072Z" fill="#C5268F"/>
<path d="M658.041 218.812C638.936 218.812 631.764 203.23 631.764 186.284C631.764 169.339 638.936 153.776 658.041 153.776C677.146 153.776 684.298 169.358 684.298 186.284C684.298 203.21 677.127 218.812 658.041 218.812ZM658.041 165.073C645.583 165.073 643.212 176.37 643.212 186.284C643.212 196.198 645.583 207.515 658.041 207.515C670.499 207.515 672.754 196.218 672.754 186.284C672.754 176.351 670.577 165.054 658.041 165.054V165.073Z" fill="#C5268F"/>
<path d="M740.467 218.072H731.099L705.93 178.279V218.072H694.483V154.497H703.928L729.195 194.309V154.497H740.545L740.467 218.072Z" fill="#C5268F"/>
<path d="M775.918 218.987C762.546 218.987 753.644 212.988 750.457 200.23L761.283 198.127C763.226 205.236 768.726 208.06 775.918 208.06C781.282 208.06 787.909 205.333 787.909 198.945C787.909 185.836 752.556 194.484 752.556 171.676C752.556 159.658 763.362 153.834 774.091 153.834C785.363 153.834 792.554 158.022 797.413 167.956L787.501 172.494C784.508 166.846 780.699 164.489 774.052 164.489C769.97 164.489 763.965 166.3 763.965 171.676C763.965 182.798 799.318 175.572 799.318 198.945C799.357 211.8 787.734 218.987 775.918 218.987Z" fill="#C5268F"/>
<path d="M884.154 219.046H885.126V218.072V154.497V153.523H884.154H872.707H871.735V154.497V179.039H848.509V154.497V153.523H847.538H836.071H835.099V154.497V218.072V219.046H836.071H847.538H848.509V218.072V191.777H871.735V218.072V219.046H872.707H884.154Z" fill="#010101" stroke="white"/>
<path d="M896.224 153.523H895.252V154.497V191.66C895.252 199.882 896.931 206.927 900.96 211.933C905.02 216.975 911.333 219.786 920.227 219.786C929.118 219.786 935.431 216.997 939.493 211.962C943.522 206.966 945.201 199.919 945.201 191.66V154.497V153.523H944.23H932.86H931.888V154.497V191.115C931.888 195.649 931.394 199.556 929.721 202.314C928.112 204.967 925.309 206.716 920.227 206.716C915.158 206.716 912.349 204.911 910.734 202.217C909.057 199.42 908.565 195.509 908.565 191.115V154.497V153.523H907.594H896.224Z" fill="#010101" stroke="white"/>
<path d="M955.269 218.072V219.046H956.241H980.691C987.114 219.046 992.964 217.758 997.246 214.568C1001.57 211.346 1004.16 206.284 1004.23 199.064C1004.34 196.031 1003.63 193.024 1002.18 190.359C1000.94 188.074 999.188 186.113 997.075 184.621C998.474 183.254 999.615 181.64 1000.44 179.856C1001.44 177.676 1001.95 175.298 1001.91 172.896C1001.91 165.983 999.39 161.077 995.194 157.931C991.042 154.819 985.373 153.523 979.214 153.523H956.241H955.269V154.497V218.072ZM968.641 179.857V166.32H979.33C982.032 166.32 984.374 166.6 986.024 167.559C986.827 168.025 987.464 168.651 987.909 169.504C988.36 170.364 988.64 171.507 988.64 173.039C988.64 176.065 987.581 177.66 986.051 178.575C984.415 179.553 982.075 179.857 979.33 179.857H968.641ZM968.66 206.268V191.913H980.691C983.581 191.913 986.098 192.2 987.876 193.224C988.741 193.725 989.431 194.397 989.913 195.32C990.399 196.249 990.7 197.484 990.7 199.14C990.7 200.795 990.399 202.024 989.917 202.944C989.439 203.853 988.753 204.513 987.89 205C986.115 206.005 983.598 206.268 980.691 206.268H968.66Z" fill="#010101" stroke="white"/>
</g>
<defs>
<clipPath id="clip0_2_1306">
<rect width="231" height="264" fill="white"/>
</clipPath>
<clipPath id="clip1_2_1306">
<rect width="772" height="175.572" fill="white" transform="translate(243 44.2141)"/>
</clipPath>
</defs>
</svg>
