<svg width="1016" height="264" viewBox="0 0 1016 264" fill="none" xmlns="http://www.w3.org/2000/svg">
<g clip-path="url(#clip0_2_1307)">
<mask id="mask0_2_1307" style="mask-type:luminance" maskUnits="userSpaceOnUse" x="0" y="0" width="231" height="264">
<path d="M231 0H0.219971V263.24H231V0Z" fill="white"/>
</mask>
<g mask="url(#mask0_2_1307)">
<path d="M63.62 196.26V196.33V208.46V237.27L90.79 261.02H142.78L168.72 237.27V208.46" stroke="black" stroke-width="4.44" stroke-miterlimit="10"/>
<path d="M214.47 117.15L174.88 185.71" stroke="black" stroke-width="4.44" stroke-miterlimit="10"/>
<path d="M162.61 185.48L122.22 115.57C125.87 113.47 128.32 109.52 128.32 105H204.64" stroke="black" stroke-width="4.44" stroke-miterlimit="10"/>
<path d="M156.51 196.33H75.8199H63.6199H63.5899L57.4599 185.71L17.7199 116.91V116.9L10.9999 105.26L11.0399 105.19L11.0499 105.18L17.7999 93.4799L57.5299 24.6899L63.5899 14.1899H75.8199H156.51H168.73H168.75L174.81 24.6899L214.39 93.2399" stroke="black" stroke-width="4.44" stroke-miterlimit="10"/>
<path d="M162.66 185.66L122.27 115.75C125.92 113.65 128.37 109.7 128.37 105.18H204.69" stroke="black" stroke-width="4.44" stroke-miterlimit="10"/>
<path d="M63.61 237.27H168.72" stroke="black" stroke-width="4.44" stroke-miterlimit="10"/>
<path d="M116.21 105.18L168.78 14.1099" stroke="black" stroke-width="4.44" stroke-miterlimit="10"/>
<path d="M128.37 105.18H116.21" stroke="black" stroke-width="4.44" stroke-miterlimit="10"/>
<path d="M63.59 14.1899L69.67 24.7099L110.06 94.6199L116.18 105.22L122.27 115.75" stroke="black" stroke-width="4.44" stroke-miterlimit="10"/>
<path d="M116.21 105.18L63.61 196.26" stroke="black" stroke-width="4.44" stroke-miterlimit="10"/>
<path d="M168.78 14.1099H63.61L11.03 105.18L63.61 196.26" stroke="#D042A7" stroke-width="15.54" stroke-miterlimit="10"/>
<path d="M116.16 105.26L11.02 105.18" stroke="#D042A7" stroke-width="15.54" stroke-miterlimit="10"/>
<path d="M63.61 26.3199C70.3534 26.3199 75.82 20.8533 75.82 14.1099C75.82 7.36651 70.3534 1.8999 63.61 1.8999C56.8666 1.8999 51.4 7.36651 51.4 14.1099C51.4 20.8533 56.8666 26.3199 63.61 26.3199Z" fill="#D042A7" stroke="black" stroke-width="3.81" stroke-miterlimit="10"/>
<path d="M63.61 208.47C70.3534 208.47 75.82 203.003 75.82 196.26C75.82 189.517 70.3534 184.05 63.61 184.05C56.8666 184.05 51.4 189.517 51.4 196.26C51.4 203.003 56.8666 208.47 63.61 208.47Z" fill="#D042A7" stroke="black" stroke-width="3.81" stroke-miterlimit="10"/>
<path d="M180.93 196.26C180.93 203 175.46 208.46 168.72 208.46C161.98 208.46 156.55 203.04 156.51 196.33V196.26C156.51 191.72 158.99 187.76 162.66 185.66C164.45 184.63 166.51 184.05 168.72 184.05C170.93 184.05 173.07 184.65 174.88 185.71C178.5 187.83 180.93 191.76 180.93 196.26Z" stroke="black" stroke-width="3.81" stroke-miterlimit="10"/>
<path d="M168.72 26.3199C175.463 26.3199 180.93 20.8533 180.93 14.1099C180.93 7.36651 175.463 1.8999 168.72 1.8999C161.977 1.8999 156.51 7.36651 156.51 14.1099C156.51 20.8533 161.977 26.3199 168.72 26.3199Z" fill="#D042A7" stroke="black" stroke-width="3.81" stroke-miterlimit="10"/>
<path d="M229.1 105.18C229.1 111.92 223.64 117.39 216.89 117.39C216.06 117.39 215.25 117.31 214.47 117.15C208.89 116.03 204.69 111.09 204.69 105.18C204.69 99.27 208.85 94.39 214.39 93.24C215.2 93.07 216.03 92.98 216.89 92.98C223.64 92.98 229.1 98.44 229.1 105.18Z" stroke="black" stroke-width="3.81" stroke-miterlimit="10"/>
<path d="M14.3299 117.39C21.0733 117.39 26.5399 111.923 26.5399 105.18C26.5399 98.4366 21.0733 92.97 14.3299 92.97C7.58654 92.97 2.11993 98.4366 2.11993 105.18C2.11993 111.923 7.58654 117.39 14.3299 117.39Z" fill="#D042A7" stroke="black" stroke-width="3.81" stroke-miterlimit="10"/>
<path d="M128.37 105.18C128.37 109.7 125.92 113.65 122.27 115.75C120.47 116.79 118.39 117.39 116.17 117.39C113.95 117.39 111.89 116.8 110.1 115.77C106.45 113.68 103.99 109.75 103.96 105.25V105.18C103.96 100.67 106.41 96.73 110.06 94.62C111.86 93.58 113.94 92.98 116.17 92.98C118.4 92.98 120.5 93.58 122.3 94.63C125.93 96.74 128.37 100.67 128.37 105.18Z" fill="#D042A7" stroke="black" stroke-width="3.81" stroke-miterlimit="10"/>
</g>
</g>
<g clip-path="url(#clip1_2_1307)">
<path d="M296.06 56.485H265.332V70.7038H292.697V81.4554H265.332V108.724H253.982V45.188H296.06V56.485Z" fill="#C5268F"/>
<path d="M352.695 108.783H340.334L334.173 92.2071H311.822L305.816 108.783H293.455L317.808 45.188H328.09L352.695 108.783ZM330.597 82.1761L323.056 61.6856L315.612 82.1761H330.597Z" fill="#C5268F"/>
<path d="M371.101 108.783H359.653V45.188H371.101V108.783Z" fill="#C5268F"/>
<path d="M415.491 81.2996C416.731 82.4153 417.777 83.7322 418.582 85.1952L433.489 108.783H420.214L407.309 87.1429C405.365 83.8707 404.316 82.4098 400.215 82.4098H395.667V108.783H384.219V45.188H407.134C419.398 45.188 428.844 50.9339 428.844 64.1398C428.904 68.0971 427.613 71.9564 425.184 75.0775C422.756 78.1984 419.336 80.3939 415.491 81.2996ZM407.212 56.2513H395.667V72.3399H407.212C412.945 72.3399 417.396 70.8011 417.396 64.1398C417.396 57.4784 412.77 56.2124 407.212 56.2124V56.2513Z" fill="#C5268F"/>
<path d="M466.879 108.783V109.757H467.851H485.77C498.16 109.757 505.983 107.722 510.624 102.381C515.231 97.082 516.459 88.7824 516.459 76.9951C516.459 65.2081 515.235 56.9038 510.632 51.5999C505.995 46.2538 498.17 44.2141 485.77 44.2141H467.851H466.879V45.188V108.783ZM488.316 96.5117H480.289V57.4589H488.316C495.544 57.4589 499.093 58.4876 500.959 61.1659L501.185 61.5438C501.902 62.7397 502.388 64.3579 502.687 66.8443C502.984 69.3312 503.087 72.6069 503.087 77.073C503.087 81.54 502.99 84.7234 502.704 87.1205C502.423 89.5019 501.964 91.0435 501.276 92.2603C499.435 95.3015 495.921 96.5117 488.316 96.5117Z" fill="#010101" stroke="white"/>
<path d="M576.729 109.757H578.148L577.634 108.431L553.087 44.8366L552.848 44.2141H552.182H541.92H541.251L541.012 44.8388L516.64 108.433L516.133 109.757H517.548H529.908H530.589L530.822 109.115L536.594 93.181H557.606L563.456 109.119L563.689 109.757H564.368H576.729ZM541.033 81.2022L547.095 64.5161L553.237 81.2022H541.033Z" fill="#010101" stroke="white"/>
<path d="M620.264 57.4589H621.236V56.4851V45.188V44.2141H620.264H572.278H571.306V45.188V56.4851V57.4589H572.278H589.576V108.783V109.757H590.547H601.995H602.967V108.783V57.4589H620.264Z" fill="#010101" stroke="white"/>
<path d="M674.976 109.757H676.394L675.881 108.431L651.334 44.8366L651.095 44.2141H650.428H640.166H639.498L639.259 44.839L614.906 108.434L614.401 109.757H615.814H628.175H628.857L629.088 109.114L634.843 93.181H655.872L661.722 109.119L661.956 109.757H662.634H674.976ZM639.302 81.2022L645.379 64.5128L651.523 81.2022H639.302Z" fill="#010101" stroke="white"/>
<path d="M265.701 218.072H254.254V154.497H265.701V218.072Z" fill="#C5268F"/>
<path d="M324.883 218.072H315.515L290.249 178.279V218.072H278.801V154.497H288.266L313.532 194.309V154.497H324.902L324.883 218.072Z" fill="#C5268F"/>
<path d="M383.773 218.072H374.405L349.236 178.279V218.072H337.769V154.497H347.234L372.403 194.27V154.497H383.773V218.072Z" fill="#C5268F"/>
<path d="M420.214 218.812C401.128 218.812 393.937 203.23 393.937 186.284C393.937 169.339 401.128 153.776 420.214 153.776C439.3 153.776 446.491 169.358 446.491 186.284C446.491 203.21 439.3 218.812 420.214 218.812ZM420.214 165.073C407.756 165.073 405.404 176.37 405.404 186.284C405.404 196.199 407.756 207.515 420.214 207.515C432.672 207.515 434.946 196.218 434.946 186.284C434.946 176.351 432.75 165.054 420.214 165.054V165.073Z" fill="#C5268F"/>
<path d="M503.262 154.497L481.883 218.072H470.98L449.601 154.497H461.593L476.402 200.776L491.31 154.497H503.262Z" fill="#C5268F"/>
<path d="M557.176 218.072H544.835L538.732 201.496H516.381L510.376 218.072H498.015L522.367 154.497H532.649L557.176 218.072ZM535.098 191.485L527.557 170.994L520.093 191.485H535.098Z" fill="#C5268F"/>
<path d="M600.732 165.794H582.443V218.072H570.995V165.794H552.726V154.497H600.732V165.794Z" fill="#C5268F"/>
<path d="M621.528 218.072H610.158V154.497H621.606L621.528 218.072Z" fill="#C5268F"/>
<path d="M658.261 218.812C639.156 218.812 631.984 203.23 631.984 186.284C631.984 169.339 639.156 153.776 658.261 153.776C677.366 153.776 684.518 169.358 684.518 186.284C684.518 203.21 677.347 218.812 658.261 218.812ZM658.261 165.073C645.803 165.073 643.432 176.37 643.432 186.284C643.432 196.199 645.803 207.515 658.261 207.515C670.719 207.515 672.974 196.218 672.974 186.284C672.974 176.351 670.797 165.054 658.261 165.054V165.073Z" fill="#C5268F"/>
<path d="M740.687 218.072H731.319L706.15 178.279V218.072H694.703V154.497H704.148L729.415 194.309V154.497H740.765L740.687 218.072Z" fill="#C5268F"/>
<path d="M776.138 218.987C762.766 218.987 753.864 212.988 750.677 200.23L761.503 198.127C763.446 205.236 768.946 208.06 776.138 208.06C781.502 208.06 788.129 205.333 788.129 198.945C788.129 185.836 752.776 194.484 752.776 171.676C752.776 159.658 763.582 153.834 774.311 153.834C785.583 153.834 792.774 158.022 797.633 167.956L787.721 172.494C784.728 166.846 780.919 164.489 774.272 164.489C770.19 164.489 764.185 166.3 764.185 171.676C764.185 182.798 799.538 175.572 799.538 198.945C799.577 211.8 787.954 218.987 776.138 218.987Z" fill="#C5268F"/>
<path d="M884.374 219.046H885.346V218.072V154.497V153.523H884.374H872.927H871.955V154.497V179.039H848.729V154.497V153.523H847.758H836.291H835.319V154.497V218.072V219.046H836.291H847.758H848.729V218.072V191.777H871.955V218.072V219.046H872.927H884.374Z" fill="#010101" stroke="white"/>
<path d="M896.444 153.523H895.472V154.497V191.66C895.472 199.882 897.151 206.927 901.18 211.933C905.24 216.975 911.553 219.786 920.447 219.786C929.338 219.786 935.651 216.997 939.713 211.962C943.742 206.966 945.421 199.919 945.421 191.66V154.497V153.523H944.45H933.08H932.108V154.497V191.115C932.108 195.649 931.614 199.556 929.941 202.315C928.332 204.967 925.529 206.716 920.447 206.716C915.378 206.716 912.569 204.911 910.954 202.217C909.277 199.42 908.785 195.509 908.785 191.115V154.497V153.523H907.814H896.444Z" fill="#010101" stroke="white"/>
<path d="M955.489 218.072V219.046H956.461H980.911C987.334 219.046 993.184 217.758 997.466 214.568C1001.79 211.346 1004.38 206.284 1004.45 199.064C1004.56 196.031 1003.85 193.024 1002.4 190.359C1001.16 188.074 999.408 186.113 997.295 184.621C998.694 183.254 999.835 181.64 1000.66 179.856C1001.66 177.676 1002.17 175.298 1002.13 172.896C1002.13 165.983 999.61 161.077 995.414 157.931C991.262 154.82 985.593 153.523 979.434 153.523H956.461H955.489V154.497V218.072ZM968.861 179.857V166.32H979.55C982.252 166.32 984.594 166.6 986.244 167.559C987.047 168.025 987.684 168.651 988.129 169.504C988.58 170.364 988.86 171.507 988.86 173.04C988.86 176.065 987.801 177.66 986.271 178.575C984.635 179.553 982.295 179.857 979.55 179.857H968.861ZM968.88 206.269V191.913H980.911C983.801 191.913 986.318 192.2 988.096 193.224C988.961 193.725 989.651 194.397 990.133 195.32C990.619 196.249 990.92 197.484 990.92 199.14C990.92 200.795 990.619 202.024 990.137 202.944C989.659 203.853 988.973 204.514 988.11 205.001C986.335 206.006 983.818 206.269 980.911 206.269H968.88Z" fill="#010101" stroke="white"/>
</g>
<defs>
<clipPath id="clip0_2_1307">
<rect width="231" height="264" fill="white" transform="translate(0.219971)"/>
</clipPath>
<clipPath id="clip1_2_1307">
<rect width="772" height="175.572" fill="white" transform="translate(243.22 44.2141)"/>
</clipPath>
</defs>
</svg>
