<svg width="1491" height="264" viewBox="0 0 1491 264" fill="none" xmlns="http://www.w3.org/2000/svg">
<g clip-path="url(#clip0_3_1722)">
<path d="M168.5 196.26V237.27L142.56 261.02H90.5599L63.3899 237.27V196.26" fill="black"/>
<path d="M168.5 196.26V237.27L142.56 261.02H90.5599L63.3899 237.27V196.26" stroke="white" stroke-width="4.44" stroke-miterlimit="10"/>
<path d="M168.53 14.1899H63.3598L10.7798 105.26L63.3598 196.33H168.53L221.11 105.26L168.53 14.1899Z" fill="black" stroke="white" stroke-width="4.44" stroke-miterlimit="10"/>
<path d="M63.3899 237.27H168.5" stroke="white" stroke-width="4.44" stroke-miterlimit="10"/>
<path d="M115.99 105.18L168.56 14.11" stroke="white" stroke-width="4.44" stroke-miterlimit="10"/>
<path d="M221.14 105.18H115.99" stroke="white" stroke-width="4.44" stroke-miterlimit="10"/>
<path d="M168.56 196.26L63.3599 14.1899" stroke="white" stroke-width="4.44" stroke-miterlimit="10"/>
<path d="M115.99 105.18L63.3899 196.26" stroke="white" stroke-width="4.44" stroke-miterlimit="10"/>
<path d="M168.56 14.11H63.3898L10.8098 105.18L63.3898 196.26" stroke="white" stroke-width="15.54" stroke-miterlimit="10"/>
<path d="M115.94 105.26L10.7998 105.18" stroke="white" stroke-width="15.54" stroke-miterlimit="10"/>
<path d="M63.3899 26.32C70.1333 26.32 75.5999 20.8534 75.5999 14.11C75.5999 7.36663 70.1333 1.90002 63.3899 1.90002C56.6465 1.90002 51.1799 7.36663 51.1799 14.11C51.1799 20.8534 56.6465 26.32 63.3899 26.32Z" fill="black" stroke="white" stroke-width="3.81" stroke-miterlimit="10"/>
<path d="M63.3899 208.47C70.1333 208.47 75.5999 203.003 75.5999 196.26C75.5999 189.517 70.1333 184.05 63.3899 184.05C56.6465 184.05 51.1799 189.517 51.1799 196.26C51.1799 203.003 56.6465 208.47 63.3899 208.47Z" fill="black" stroke="white" stroke-width="3.81" stroke-miterlimit="10"/>
<path d="M168.5 208.47C175.243 208.47 180.71 203.003 180.71 196.26C180.71 189.517 175.243 184.05 168.5 184.05C161.756 184.05 156.29 189.517 156.29 196.26C156.29 203.003 161.756 208.47 168.5 208.47Z" fill="black" stroke="white" stroke-width="3.81" stroke-miterlimit="10"/>
<path d="M168.5 26.32C175.243 26.32 180.71 20.8534 180.71 14.11C180.71 7.36663 175.243 1.90002 168.5 1.90002C161.756 1.90002 156.29 7.36663 156.29 14.11C156.29 20.8534 161.756 26.32 168.5 26.32Z" fill="black" stroke="white" stroke-width="3.81" stroke-miterlimit="10"/>
<path d="M216.67 117.39C223.413 117.39 228.88 111.923 228.88 105.18C228.88 98.4366 223.413 92.97 216.67 92.97C209.927 92.97 204.46 98.4366 204.46 105.18C204.46 111.923 209.927 117.39 216.67 117.39Z" fill="black" stroke="white" stroke-width="3.81" stroke-miterlimit="10"/>
<path d="M14.1099 117.39C20.8533 117.39 26.3199 111.923 26.3199 105.18C26.3199 98.4366 20.8533 92.97 14.1099 92.97C7.36651 92.97 1.8999 98.4366 1.8999 105.18C1.8999 111.923 7.36651 117.39 14.1099 117.39Z" fill="black" stroke="white" stroke-width="3.81" stroke-miterlimit="10"/>
<path d="M115.94 117.39C122.683 117.39 128.15 111.923 128.15 105.18C128.15 98.4366 122.683 92.97 115.94 92.97C109.197 92.97 103.73 98.4366 103.73 105.18C103.73 111.923 109.197 117.39 115.94 117.39Z" fill="black" stroke="white" stroke-width="3.81" stroke-miterlimit="10"/>
</g>
<path d="M308.537 110.049H275.682V128.022H305.007V136.677H275.682V165.912H266.493V100.922H308.537V110.049Z" fill="#C5258F"/>
<path d="M364.816 165.912H354.793L348.202 148.038H322.59L315.999 165.912H306.067L330.938 100.93H339.847L364.816 165.912ZM345.233 139.846L335.392 113.682L325.65 139.846H345.233Z" fill="#C5258F"/>
<path d="M381.712 165.912H372.431V100.93H381.712V165.912Z" fill="#C5258F"/>
<path d="M425.11 136.951C426.595 138.068 427.989 140.12 429.012 141.792L443.952 165.905H433.186L419.823 143.372C417.876 140.021 416.292 137.878 411.937 137.878H404.975V165.905H395.695V100.922H418.709C431.05 100.922 440.24 106.508 440.24 119.64C440.24 128.668 434.762 135.097 425.11 136.959V136.951ZM418.709 109.95H404.975V129.686H418.709C425.58 129.686 430.959 127.642 430.959 119.723C430.959 111.805 425.39 109.95 418.709 109.95Z" fill="#C5258F"/>
<path d="M497.584 99.7162C510.362 99.7163 518.226 101.991 522.769 107.65C527.246 113.227 528.209 121.779 528.209 133.417C528.209 145.055 527.246 153.608 522.769 159.185C518.225 164.844 510.362 167.119 497.584 167.119H496.382V167.11H478.003V99.7162H497.584ZM489.688 155.481H499.44C508.336 155.481 512.412 153.963 514.456 150.489L514.462 150.478C515.241 149.12 515.745 147.343 516.055 145.021L516.177 143.993C516.471 141.155 516.517 137.701 516.517 133.509C516.517 129.84 516.481 126.665 516.268 123.957L516.165 122.823C515.859 119.883 515.307 117.675 514.379 116.084L514.371 116.069L514.361 116.055L514.163 115.751C512.049 112.664 507.944 111.247 499.44 111.247H489.688V155.481Z" fill="black" stroke="white" stroke-width="2"/>
<path d="M564.026 99.7238L564.324 100.496L589.293 165.478L589.923 167.119H577.309L577.02 166.33L571.011 150.033L570.72 149.245H546.782L546.491 150.033L540.481 166.331L540.192 167.119H527.673L528.3 165.479L553.169 100.498L553.464 99.7238H564.026ZM557.631 120.124L551.344 137.013L550.737 138.641H566.849L566.235 137.008L559.882 120.119L558.752 117.113L557.631 120.124Z" fill="black" stroke="white" stroke-width="2"/>
<path d="M632.867 99.7238V111.263H613.375V167.119H601.689V111.263H582.197V99.7238H632.867Z" fill="black" stroke="white" stroke-width="2"/>
<path d="M661.582 99.7238L661.88 100.496L686.85 165.478L687.48 167.119H674.866L674.576 166.33L668.567 150.033L668.276 149.245H644.339L644.048 150.033L638.038 166.331L637.748 167.119H625.229L625.857 165.479L650.725 100.498L651.021 99.7238H661.582ZM655.187 120.124L648.901 137.013L648.294 138.641H664.406L663.791 137.008L657.438 120.119L656.308 117.113L655.187 120.124Z" fill="black" stroke="white" stroke-width="2"/>
<path d="M729.274 165.912H719.993V100.93H729.274V165.912Z" fill="#C5258F"/>
<path d="M789.375 165.912H781.39L752.527 119.64V165.912H743.247V100.93H751.323L780.095 147.203V100.93H789.375V165.912Z" fill="#C5258F"/>
<path d="M848.536 165.912H840.552L811.689 119.64V165.912H802.408V100.93H810.484L839.257 147.203V100.93H848.536V165.912Z" fill="#C5258F"/>
<path d="M885.251 166.669C865.759 166.669 858.797 150.558 858.797 133.429C858.797 116.3 865.759 100.19 885.251 100.19C904.744 100.19 911.706 116.202 911.706 133.429C911.706 150.657 904.652 166.669 885.251 166.669ZM885.251 109.317C870.957 109.317 868.078 122.258 868.078 133.429C868.078 144.6 870.957 157.542 885.251 157.542C899.546 157.542 902.327 144.6 902.327 133.429C902.327 122.258 899.539 109.317 885.251 109.317Z" fill="#C5258F"/>
<path d="M967.633 100.922L945.731 165.905H936.633L914.732 100.922H924.475L941.178 152.036L957.882 100.922H967.624H967.633Z" fill="#C5258F"/>
<path d="M1021.46 165.912H1011.44L1004.85 148.038H979.235L972.645 165.912H962.713L987.584 100.93H996.492L1021.46 165.912ZM1001.88 139.846L992.038 113.682L982.296 139.846H1001.88Z" fill="#C5258F"/>
<path d="M1064.96 110.057H1045.47V165.912H1036.19V110.057H1016.7V100.93H1064.96V110.057Z" fill="#C5258F"/>
<path d="M1083.76 165.912H1074.48V100.93H1083.76V165.912Z" fill="#C5258F"/>
<path d="M1121.42 166.669C1101.92 166.669 1094.96 150.558 1094.96 133.429C1094.96 116.3 1101.92 100.19 1121.42 100.19C1140.91 100.19 1147.87 116.202 1147.87 133.429C1147.87 150.657 1140.82 166.669 1121.42 166.669ZM1121.42 109.317C1107.12 109.317 1104.24 122.258 1104.24 133.429C1104.24 144.6 1107.12 157.542 1121.42 157.542C1135.71 157.542 1138.49 144.6 1138.49 133.429C1138.49 122.258 1135.7 109.317 1121.42 109.317Z" fill="#C5258F"/>
<path d="M1204.22 165.912H1196.23L1167.37 119.64V165.912H1158.09V100.93H1166.16L1194.94 147.203V100.93H1204.22V165.912Z" fill="#C5258F"/>
<path d="M1239.92 166.857C1226.64 166.857 1217.45 161.18 1214.39 148.611L1223.21 146.931C1225.35 155.123 1232.12 158.012 1239.92 158.012C1246.42 158.012 1254.21 154.569 1254.21 146.931C1254.21 131.102 1216.62 140.973 1216.62 117.788C1216.62 105.872 1227.3 100.195 1238.06 100.195C1248.82 100.195 1256.44 104.2 1261.26 113.973L1253.28 117.605C1249.94 111.366 1245.29 108.95 1238.06 108.95C1232.95 108.95 1225.81 111.093 1225.81 117.795C1225.81 131.391 1263.49 122.727 1263.49 146.939C1263.49 159.79 1251.89 166.864 1239.92 166.864V166.857Z" fill="#C5258F"/>
<path d="M1310.62 99.7238V126.816H1337.91V99.7238H1349.59V167.119H1337.91V137.975H1310.62V167.119H1298.93V99.7238H1310.62Z" fill="black" stroke="white" stroke-width="2"/>
<path d="M1371.06 99.7253V138.268C1371.06 143.304 1371.63 147.861 1373.57 151.136C1374.48 152.663 1375.75 154.008 1377.58 154.96C1379.4 155.904 1381.7 156.424 1384.62 156.424C1387.55 156.424 1389.86 155.913 1391.7 154.981C1393.54 154.043 1394.83 152.713 1395.76 151.194C1397.74 147.945 1398.35 143.392 1398.35 138.268V99.7253H1409.95V138.731C1409.95 147.137 1408.35 154.434 1404.32 159.65C1400.25 164.922 1393.85 167.864 1384.71 167.864C1375.56 167.864 1369.14 164.872 1365.05 159.579C1361 154.343 1359.38 147.048 1359.38 138.731V99.7253H1371.06Z" fill="black" stroke="white" stroke-width="2"/>
<path d="M1444.03 99.7162C1450.24 99.7162 1455.97 100.972 1460.17 104.07C1464.42 107.213 1466.95 112.136 1466.95 119.077C1466.95 123.266 1465.5 127.543 1462.2 130.828L1461.18 131.837L1462.34 132.669C1467.24 136.15 1469.36 141.574 1469.36 147.005C1469.36 154.26 1466.75 159.372 1462.37 162.627C1458.29 165.63 1452.83 166.943 1446.82 167.095L1445.62 167.109H1419.81V99.7162H1444.03ZM1431.5 155.845H1445.62C1449.02 155.845 1452.05 155.486 1454.23 154.237C1455.28 153.627 1456.11 152.807 1456.71 151.699V151.691C1457.32 150.566 1457.68 149.076 1457.68 147.089C1457.68 145.165 1457.34 143.649 1456.71 142.446C1456.17 141.381 1455.42 140.625 1454.6 140.067L1454.24 139.839C1452.1 138.55 1449.05 138.15 1445.62 138.15H1431.5V155.845ZM1431.5 127.637H1444.4C1447.7 127.637 1450.46 127.211 1452.4 125.984C1453.25 125.437 1454.04 124.665 1454.6 123.52C1455.15 122.39 1455.45 120.967 1455.45 119.161C1455.45 117.319 1455.11 115.934 1454.55 114.885C1454.01 113.845 1453.2 113.078 1452.24 112.507L1452.23 112.502L1451.83 112.291C1449.84 111.281 1447.14 110.967 1444.12 110.967H1431.5V127.637Z" fill="black" stroke="white" stroke-width="2"/>
<defs>
<clipPath id="clip0_3_1722">
<rect width="230.78" height="263.24" fill="white"/>
</clipPath>
</defs>
</svg>
