<svg width="231" height="264" viewBox="0 0 231 264" fill="none" xmlns="http://www.w3.org/2000/svg">
<g clip-path="url(#clip0_3_160)">
<ellipse cx="216.5" cy="105" rx="12.5" ry="12" fill="#EEEEEE"/>
<rect x="190.116" y="78.8187" width="38" height="118.641" rx="6" transform="rotate(30 190.116 78.8187)" fill="#EEEEEE"/>
<rect x="134" y="201" width="35" height="16" fill="#EEEEEE"/>
<rect x="87" y="186" width="92" height="19" fill="#EEEEEE"/>
<path d="M63.4 196.26V196.33V208.46V237.27L90.57 261.02H142.56L168.5 237.27V208.46" fill="#EEEEEE"/>
<path d="M63.4 196.26V196.33V208.46V237.27L90.57 261.02H142.56L168.5 237.27V208.46" stroke="black" stroke-width="4.44" stroke-miterlimit="10"/>
<path d="M214.25 117.15L174.66 185.71Z" fill="#EEEEEE"/>
<path d="M214.25 117.15L174.66 185.71" stroke="black" stroke-width="4.44" stroke-miterlimit="10"/>
<path d="M162.44 185.66L122.05 115.75C125.7 113.65 128.15 109.7 128.15 105.18H204.47" fill="#EEEEEE"/>
<path d="M162.44 185.66L122.05 115.75C125.7 113.65 128.15 109.7 128.15 105.18H204.47" stroke="black" stroke-width="4.44" stroke-miterlimit="10"/>
<path d="M156.29 196.33H75.6H63.4H63.37L57.24 185.71L17.5 116.91V116.9L10.78 105.26L10.82 105.19L10.83 105.18L17.58 93.48L57.31 24.69L63.37 14.19H75.6H156.29H168.51H168.53L174.59 24.69L214.17 93.24" fill="#EEEEEE"/>
<path d="M156.29 196.33H75.6H63.4H63.37L57.24 185.71L17.5 116.91V116.9L10.78 105.26L10.82 105.19L10.83 105.18L17.58 93.48L57.31 24.69L63.37 14.19H75.6H156.29H168.51H168.53L174.59 24.69L214.17 93.24" stroke="black" stroke-width="4.44" stroke-miterlimit="10"/>
<path d="M162.44 185.66L122.05 115.75C125.7 113.65 128.15 109.7 128.15 105.18H204.47" fill="#EEEEEE"/>
<path d="M162.44 185.66L122.05 115.75C125.7 113.65 128.15 109.7 128.15 105.18H204.47" stroke="black" stroke-width="4.44" stroke-miterlimit="10"/>
<path d="M63.39 237.27H168.5" stroke="black" stroke-width="4.44" stroke-miterlimit="10"/>
<path d="M115.99 105.18L168.56 14.11" stroke="black" stroke-width="4.44" stroke-miterlimit="10"/>
<path d="M128.15 105.18H115.99" stroke="black" stroke-width="4.44" stroke-miterlimit="10"/>
<path d="M63.37 14.19L69.45 24.71L109.84 94.62L115.96 105.22L122.05 115.75" fill="#EEEEEE"/>
<path d="M63.37 14.19L69.45 24.71L109.84 94.62L115.96 105.22L122.05 115.75" stroke="black" stroke-width="4.44" stroke-miterlimit="10"/>
<path d="M115.99 105.18L63.39 196.26" stroke="black" stroke-width="4.44" stroke-miterlimit="10"/>
<path d="M168.56 14.11H63.39L10.81 105.18L63.39 196.26" stroke="#D042A7" stroke-width="15.54" stroke-miterlimit="10"/>
<path d="M115.94 105.26L10.8 105.18" stroke="#D042A7" stroke-width="15.54" stroke-miterlimit="10"/>
<path d="M63.39 26.32C70.1334 26.32 75.6 20.8534 75.6 14.11C75.6 7.3666 70.1334 1.89999 63.39 1.89999C56.6466 1.89999 51.18 7.3666 51.18 14.11C51.18 20.8534 56.6466 26.32 63.39 26.32Z" fill="#D042A7" stroke="black" stroke-width="3.81" stroke-miterlimit="10"/>
<path d="M63.39 208.47C70.1334 208.47 75.6 203.003 75.6 196.26C75.6 189.517 70.1334 184.05 63.39 184.05C56.6466 184.05 51.18 189.517 51.18 196.26C51.18 203.003 56.6466 208.47 63.39 208.47Z" fill="#D042A7" stroke="black" stroke-width="3.81" stroke-miterlimit="10"/>
<path d="M180.71 196.26C180.71 203 175.24 208.46 168.5 208.46C161.76 208.46 156.33 203.04 156.29 196.33V196.26C156.29 191.72 158.77 187.76 162.44 185.66C164.23 184.63 166.29 184.05 168.5 184.05C170.71 184.05 172.85 184.65 174.66 185.71C178.28 187.83 180.71 191.76 180.71 196.26Z" stroke="black" stroke-width="3.81" stroke-miterlimit="10"/>
<path d="M168.5 26.32C175.243 26.32 180.71 20.8534 180.71 14.11C180.71 7.3666 175.243 1.89999 168.5 1.89999C161.757 1.89999 156.29 7.3666 156.29 14.11C156.29 20.8534 161.757 26.32 168.5 26.32Z" fill="#D042A7" stroke="black" stroke-width="3.81" stroke-miterlimit="10"/>
<path d="M228.88 105.18C228.88 111.92 223.42 117.39 216.67 117.39C215.84 117.39 215.03 117.31 214.25 117.15C208.67 116.03 204.47 111.09 204.47 105.18C204.47 99.27 208.63 94.39 214.17 93.24C214.98 93.07 215.81 92.98 216.67 92.98C223.42 92.98 228.88 98.44 228.88 105.18Z" stroke="black" stroke-width="3.81" stroke-miterlimit="10"/>
<path d="M14.11 117.39C20.8534 117.39 26.32 111.923 26.32 105.18C26.32 98.4366 20.8534 92.97 14.11 92.97C7.3666 92.97 1.89999 98.4366 1.89999 105.18C1.89999 111.923 7.3666 117.39 14.11 117.39Z" fill="#D042A7" stroke="black" stroke-width="3.81" stroke-miterlimit="10"/>
<path d="M128.15 105.18C128.15 109.7 125.7 113.65 122.05 115.75C120.25 116.79 118.17 117.39 115.95 117.39C113.73 117.39 111.67 116.8 109.88 115.77C106.23 113.68 103.77 109.75 103.74 105.25V105.18C103.74 100.67 106.19 96.73 109.84 94.62C111.64 93.58 113.72 92.98 115.95 92.98C118.18 92.98 120.28 93.58 122.08 94.63C125.71 96.74 128.15 100.67 128.15 105.18Z" fill="#D042A7" stroke="black" stroke-width="3.81" stroke-miterlimit="10"/>
</g>
<defs>
<clipPath id="clip0_3_160">
<rect width="230.78" height="263.24" fill="white"/>
</clipPath>
</defs>
</svg>
