<?xml version="1.0" encoding="UTF-8"?>
<svg id="Calque_2" data-name="Calque 2" xmlns="http://www.w3.org/2000/svg" viewBox="0 0 230.78 263.24">
  <defs>
    <style>
      .cls-1 {
        stroke-width: 4.44px;
      }

      .cls-1, .cls-2, .cls-3 {
        stroke: #fff;
      }

      .cls-1, .cls-2, .cls-3, .cls-4 {
        stroke-miterlimit: 10;
      }

      .cls-1, .cls-4 {
        fill: none;
      }

      .cls-2 {
        fill: #d042a7;
      }

      .cls-2, .cls-3 {
        stroke-width: 3.81px;
      }

      .cls-4 {
        stroke: #d042a7;
        stroke-width: 15.54px;
      }
    </style>
  </defs>
  <g id="Calque_1-2" data-name="Calque 1">
    <g>
      <g>
        <polyline class="cls-1" points="63.39 196.26 63.39 196.33 63.39 208.46 63.39 237.27 90.57 261.02 142.56 261.02 168.5 237.27 168.5 208.46"/>
        <polyline class="cls-1" points="156.29 196.33 75.6 196.33 63.39 196.33 63.36 196.33 57.23 185.71 10.78 105.26 10.82 105.19 10.83 105.18 57.3 24.69 63.36 14.19 75.6 14.19 156.29 14.19 168.51 14.19 168.53 14.19 174.59 24.69 214.17 93.24"/>
        <line class="cls-1" x1="214.25" y1="117.15" x2="174.66" y2="185.71"/>
        <line class="cls-1" x1="63.39" y1="237.27" x2="168.5" y2="237.27"/>
        <line class="cls-1" x1="115.99" y1="105.18" x2="168.56" y2="14.11"/>
        <polyline class="cls-1" points="115.99 105.18 128.15 105.18 204.46 105.18"/>
        <polyline class="cls-1" points="63.36 14.19 69.44 24.71 109.83 94.62 115.96 105.23 122.04 115.75 162.43 185.66"/>
        <line class="cls-1" x1="115.99" y1="105.18" x2="63.39" y2="196.26"/>
      </g>
      <g>
        <polyline class="cls-4" points="168.56 14.11 63.39 14.11 10.81 105.18 63.39 196.26"/>
        <line class="cls-4" x1="115.94" y1="105.26" x2="10.8" y2="105.18"/>
      </g>
      <g>
        <circle class="cls-2" cx="63.39" cy="14.11" r="12.21"/>
        <circle class="cls-2" cx="63.39" cy="196.26" r="12.21"/>
        <circle class="cls-3" cx="168.5" cy="196.26" r="12.21"/>
        <circle class="cls-2" cx="168.5" cy="14.11" r="12.21"/>
        <circle class="cls-3" cx="216.67" cy="105.18" r="12.21"/>
        <circle class="cls-2" cx="14.11" cy="105.18" r="12.21"/>
        <circle class="cls-2" cx="115.94" cy="105.18" r="12.21"/>
      </g>
    </g>
  </g>
</svg>